<?xml version="1.0" standalone="no"?>
<!DOCTYPE svg PUBLIC "-//W3C//DTD SVG 20010904//EN"
 "http://www.w3.org/TR/2001/REC-SVG-20010904/DTD/svg10.dtd">
<svg version="1.0" xmlns="http://www.w3.org/2000/svg"
 width="512.000000pt" height="512.000000pt" viewBox="0 0 512.000000 512.000000"
 preserveAspectRatio="xMidYMid meet">
<metadata>
Created by potrace 1.14, written by Peter Selinger 2001-2017
</metadata>
<g transform="translate(0.000000,512.000000) scale(0.100000,-0.100000)"
fill="#000000" stroke="none">
<path d="M40 4204 c0 -8 5 -12 10 -9 6 3 10 10 10 16 0 5 -4 9 -10 9 -5 0 -10
-7 -10 -16z"/>
<path d="M2821 4066 c-7 -8 -28 -22 -47 -31 -22 -10 -34 -22 -32 -33 1 -9 -1
-22 -5 -28 -9 -15 -57 -5 -57 12 0 17 17 27 25 14 10 -17 25 -1 23 24 -2 20
-6 22 -29 16 -15 -5 -31 -5 -34 -2 -13 13 7 -63 21 -79 8 -9 11 -20 7 -24 -5
-5 0 -3 10 4 9 8 21 10 25 6 4 -4 1 -10 -5 -12 -7 -3 -13 -11 -13 -18 0 -8
-10 -16 -22 -18 -14 -3 -8 -5 15 -6 23 0 36 -5 32 -11 -4 -6 -10 -8 -14 -5 -5
2 -16 -4 -26 -15 -18 -19 -17 -20 3 -20 23 0 30 -16 10 -22 -8 -3 -8 -9 0 -24
6 -10 12 -15 12 -10 0 5 9 1 19 -8 13 -12 21 -14 26 -6 3 5 11 7 17 4 5 -4 -2
-14 -17 -24 l-27 -18 23 -13 c13 -7 31 -12 38 -10 13 2 13 0 1 -14 -13 -16
-15 -16 -27 2 -9 12 -16 14 -21 7 -4 -7 -20 -12 -35 -12 -16 0 -39 -10 -53
-22 -27 -27 -31 -40 -10 -40 8 0 14 -8 13 -19 -1 -14 -9 -18 -37 -17 -24 1
-35 6 -35 16 0 9 7 14 20 12 15 -3 17 -1 9 7 -11 12 -44 5 -44 -10 0 -5 -7 -9
-15 -9 -8 0 -15 6 -15 14 0 9 -9 12 -27 8 -23 -4 -26 -2 -15 9 19 20 14 31 -8
17 -11 -7 -20 -18 -20 -25 0 -7 -4 -13 -9 -13 -18 0 -23 21 -9 37 11 15 10 16
-9 11 -14 -4 -21 -2 -20 5 1 6 -3 11 -10 12 -6 0 -15 4 -20 9 -5 5 -3 6 5 2 7
-4 12 -1 12 8 0 9 -4 16 -9 16 -14 0 -33 -28 -26 -40 3 -5 1 -10 -4 -10 -6 0
-11 5 -11 10 0 7 -7 7 -21 0 -23 -13 -41 -4 -20 9 7 5 10 14 7 20 -4 6 -2 11
3 11 6 0 11 -4 11 -10 0 -5 6 -10 13 -10 6 1 -3 13 -20 29 -37 31 -42 45 -13
36 14 -4 22 -1 27 12 4 10 13 23 21 29 10 7 11 13 5 17 -6 4 -23 -5 -38 -19
-22 -20 -30 -23 -36 -12 -6 9 -9 5 -9 -14 0 -15 5 -30 11 -34 8 -5 8 -9 -1
-14 -6 -4 -12 -24 -13 -43 -1 -34 -27 -64 -27 -31 0 9 5 12 12 8 7 -4 8 -3 4
5 -5 8 -15 6 -33 -9 -26 -20 -49 -27 -39 -12 6 10 -11 38 -19 30 -3 -3 -7 -20
-7 -37 -1 -17 -8 -37 -17 -44 -14 -11 -14 -10 -2 6 8 9 10 21 6 25 -4 4 -10 1
-12 -5 -8 -21 -23 -15 -33 13 -12 30 -27 28 -49 -7 -15 -23 -15 -23 2 -10 13
10 20 11 31 2 35 -29 16 -89 -25 -78 -11 3 -19 2 -19 -2 0 -4 -9 -7 -20 -8
-11 -1 -20 2 -20 8 0 5 -4 9 -10 9 -5 0 -10 -7 -10 -15 0 -9 9 -15 25 -15 14
0 25 -5 25 -11 0 -5 -5 -7 -10 -4 -6 3 -13 -1 -16 -9 -5 -12 -10 -13 -25 -5
-12 6 -19 6 -19 0 0 -5 9 -12 19 -16 11 -3 22 -13 25 -21 4 -12 2 -15 -9 -10
-8 3 -15 0 -15 -7 0 -7 17 -17 38 -24 28 -9 33 -9 21 0 -12 10 -13 16 -4 34 9
17 14 20 23 11 9 -9 15 -9 24 0 9 9 8 12 -3 16 -41 13 -43 14 -21 15 15 1 22
7 22 20 0 23 16 37 22 19 3 -7 9 -8 18 -3 18 11 60 16 60 7 0 -4 -17 -17 -37
-28 l-37 -21 31 1 c17 0 29 5 26 9 -3 5 4 11 15 14 13 3 22 15 24 32 2 14 9
25 16 23 6 -1 12 2 12 8 0 5 9 10 20 10 12 0 20 -7 20 -16 0 -9 5 -13 13 -10
6 3 20 9 30 12 9 4 17 11 17 16 0 6 7 8 15 4 8 -3 21 4 30 17 14 20 17 20 25
5 6 -10 19 -15 32 -12 13 2 16 1 8 -2 -8 -4 -19 -14 -24 -23 -8 -13 -10 -13
-17 4 -7 18 -8 18 -8 2 -1 -10 -5 -15 -11 -12 -5 3 -10 2 -10 -4 0 -5 5 -13
10 -16 6 -3 10 -2 10 4 0 6 7 8 15 5 8 -4 15 -2 15 4 0 5 7 13 16 16 12 4 14
1 9 -14 -4 -13 -1 -22 9 -26 8 -3 12 -12 9 -21 -6 -14 -8 -14 -19 1 -7 10 -15
13 -18 7 -7 -11 -1 -16 36 -30 20 -7 24 -6 23 7 -1 10 -6 26 -13 38 -10 19 -9
21 14 18 16 -1 24 2 21 9 -3 7 6 13 19 13 13 1 24 -1 24 -5 -1 -12 -27 -41
-33 -35 -3 3 -4 -6 -3 -20 2 -14 -1 -26 -5 -26 -5 0 -9 -4 -9 -9 0 -5 17 -4
37 2 23 7 31 13 20 15 -9 2 -17 10 -17 18 0 12 4 13 22 3 16 -9 23 -9 26 0 2
6 15 11 29 11 20 0 24 -4 22 -22 -4 -27 7 -48 24 -48 7 0 3 7 -7 15 -17 13
-15 14 30 13 27 -1 66 2 87 6 24 6 37 5 37 -2 0 -7 13 -6 35 4 21 8 35 10 35
4 0 -5 7 -10 16 -10 8 0 12 -5 9 -11 -4 -6 -14 -8 -23 -4 -9 3 -13 3 -10 -1 4
-3 1 -13 -7 -21 -17 -16 -20 -59 -5 -68 5 -3 7 0 4 8 -3 8 2 17 10 20 9 4 16
2 16 -3 0 -6 5 -10 11 -10 16 0 5 25 -12 26 -8 1 -18 2 -23 3 -13 1 26 30 41
31 6 0 14 -8 16 -17 2 -10 3 -4 1 12 -3 17 -10 35 -18 40 -7 6 -11 16 -9 23 3
7 -4 12 -15 12 -22 0 -37 26 -22 35 19 12 10 22 -15 17 -14 -2 -25 -10 -25
-18 0 -9 -6 -11 -17 -7 -36 14 -60 51 -25 39 14 -5 14 -3 -3 11 -11 10 -20 24
-21 31 -2 27 -5 32 -16 32 -16 0 -18 -52 -3 -63 5 -5 0 -6 -11 -2 -17 4 -23 0
-28 -20 -4 -14 -4 -30 -1 -35 4 -6 1 -10 -5 -10 -6 0 -14 -10 -19 -22 l-8 -22
-5 22 c-4 12 -2 22 3 22 5 0 9 9 9 20 0 11 5 20 11 20 13 0 2 39 -18 61 -12
14 -12 17 3 23 11 4 21 1 26 -9 5 -8 14 -15 21 -15 8 0 7 4 -2 9 -12 8 -12 12
-2 25 17 21 23 20 49 -5 20 -18 24 -18 37 -5 9 8 21 13 28 10 16 -6 17 47 2
59 -6 5 0 7 13 4 13 -3 36 -2 51 3 24 7 32 3 55 -22 15 -17 25 -32 23 -34 -2
-2 -18 -1 -36 2 -22 5 -30 11 -27 21 4 8 1 11 -5 7 -6 -3 -9 -16 -7 -29 3 -14
-2 -26 -14 -34 -10 -6 -18 -19 -18 -29 -1 -16 -1 -16 -11 1 -6 9 -15 15 -20
12 -5 -4 -7 -11 -4 -16 4 -5 -1 -9 -9 -9 -10 0 -16 -9 -16 -22 0 -20 1 -20 18
-5 38 34 90 6 60 -31 -11 -13 -10 -14 10 -3 25 13 27 21 10 40 -11 11 -10 13
3 8 9 -3 22 0 29 6 10 9 11 9 8 -3 -6 -19 15 -40 39 -40 14 0 15 -2 4 -9 -7
-5 -22 -6 -33 -3 -18 4 -19 3 -8 -18 11 -21 13 -21 22 -7 12 23 25 21 31 -5 5
-18 8 -19 21 -9 13 11 18 10 32 -3 23 -24 12 -41 -28 -41 -29 0 -34 3 -30 19
5 18 4 18 -17 0 -11 -10 -21 -20 -21 -21 0 -1 18 -7 40 -13 22 -6 38 -15 35
-21 -4 -5 -11 -7 -16 -3 -13 8 -69 -6 -69 -17 0 -6 8 -6 19 1 36 19 46 10 18
-16 -19 -17 -26 -32 -22 -44 7 -21 -11 -28 -65 -26 -20 0 -35 6 -35 13 0 19
-22 36 -35 28 -9 -6 -8 -10 4 -17 14 -8 15 -11 1 -24 -8 -9 -23 -14 -32 -12
-10 1 -24 -1 -30 -5 -9 -5 -13 -3 -13 7 0 20 -2 20 -56 -4 -24 -12 -49 -18
-53 -15 -5 2 -21 -1 -36 -9 -14 -8 -22 -17 -16 -20 10 -6 56 1 76 12 5 3 34 7
65 9 83 5 84 5 97 15 7 6 19 5 32 -2 13 -6 21 -7 21 -1 0 5 14 9 31 9 22 -1
33 -7 36 -19 4 -14 12 -18 33 -14 18 3 30 0 33 -9 9 -23 -89 -14 -108 10 -12
15 -16 16 -24 5 -7 -11 -10 -11 -15 0 -3 8 -5 1 -5 -16 1 -16 1 -36 0 -42 -1
-15 -31 -18 -31 -3 0 6 7 10 15 10 12 0 13 4 3 25 -14 31 -22 31 -41 1 -15
-22 -15 -25 1 -31 14 -5 14 -7 2 -16 -10 -6 11 -8 64 -4 69 5 77 4 66 -10 -8
-9 -8 -15 -2 -15 6 0 14 5 17 10 9 14 45 12 45 -2 0 -10 2 -10 8 0 5 7 16 10
26 6 16 -6 16 -8 0 -25 -21 -24 -11 -24 23 -1 21 13 25 14 18 2 -14 -22 -13
-57 2 -56 7 1 23 -14 34 -31 12 -18 16 -33 10 -33 -6 0 -11 -5 -11 -12 0 -6 3
-8 7 -5 3 4 12 2 20 -5 19 -16 30 -1 15 22 -7 12 -8 20 -2 20 5 0 10 -5 10
-11 0 -5 4 -8 9 -5 5 4 7 -3 4 -14 -3 -11 -1 -20 5 -20 6 0 8 -9 5 -20 -3 -11
0 -20 6 -20 6 0 11 5 11 10 0 6 5 10 11 10 6 0 8 -7 5 -16 -3 -8 -2 -12 4 -9
5 3 12 -10 16 -30 3 -20 12 -35 20 -35 8 0 14 -5 14 -11 0 -6 7 -8 16 -5 14 5
15 4 5 -8 -9 -11 -6 -16 18 -24 22 -8 31 -7 35 1 2 7 5 2 5 -11 1 -19 -3 -22
-21 -18 -13 3 -17 3 -10 0 20 -9 14 -26 -7 -19 -11 3 -23 0 -27 -6 -4 -8 -3
-9 4 -5 7 4 12 2 12 -3 0 -6 8 -11 18 -11 10 0 19 -6 19 -14 0 -8 -8 -11 -18
-9 -15 4 -18 0 -16 -26 1 -17 8 -31 15 -31 6 0 12 -4 12 -10 0 -5 -8 -7 -17
-4 -15 5 -16 4 -3 -5 13 -10 13 -12 0 -21 -9 -6 -10 -10 -3 -10 6 0 15 5 18
10 8 13 25 3 25 -16 0 -8 -9 -14 -19 -14 -14 0 -18 -5 -14 -20 3 -11 9 -23 14
-26 5 -3 6 2 3 11 -5 11 -2 14 10 9 20 -8 21 -23 1 -30 -9 -4 -15 -11 -14 -18
4 -31 -2 -66 -11 -66 -6 0 -10 7 -8 16 2 10 -5 18 -14 19 -10 2 -18 -1 -18 -5
0 -5 -3 -16 -7 -26 -4 -11 -3 -15 4 -11 7 5 9 0 6 -13 -3 -12 -2 -20 3 -19 20
3 54 -14 54 -27 0 -11 -10 -13 -40 -9 -23 3 -40 1 -40 -5 0 -6 6 -10 13 -10 8
0 7 -4 -3 -10 -13 -8 -12 -10 3 -10 25 0 21 -14 -13 -49 -17 -16 -26 -32 -21
-36 5 -3 14 2 19 11 7 13 11 14 17 4 5 -8 1 -16 -9 -22 -19 -11 -22 -32 -2
-25 10 4 12 0 9 -14 -6 -20 -23 -27 -23 -9 0 6 -6 5 -14 -2 -10 -9 -11 -15 -2
-20 8 -6 8 -8 -1 -8 -6 0 -15 5 -19 11 -3 6 -15 9 -25 6 -11 -3 -19 -1 -19 4
0 5 -5 9 -10 9 -6 0 -9 -3 -9 -7 3 -20 -2 -31 -17 -37 -8 -3 -12 -2 -9 4 3 6
-4 10 -16 10 -18 0 -19 -2 -9 -15 9 -10 9 -15 1 -15 -6 0 -11 4 -11 8 0 5 -7
17 -15 28 -8 10 -15 15 -14 9 1 -5 1 -17 0 -27 -2 -24 -47 -16 -71 12 l-20 23
0 -28 c0 -28 -1 -28 -15 -9 -8 10 -15 30 -16 44 -1 18 -3 20 -6 7 -3 -11 -10
-16 -20 -13 -11 4 -13 1 -8 -14 3 -11 1 -28 -5 -37 -11 -17 -11 -17 -6 0 9 28
-10 56 -34 50 -11 -3 -20 0 -20 6 0 6 -5 11 -11 11 -6 0 -9 -9 -6 -20 3 -11 0
-23 -6 -27 -7 -3 -9 -3 -5 2 4 4 -4 17 -18 27 -16 13 -24 28 -22 41 2 12 -6
31 -17 43 -22 24 -35 124 -16 124 6 0 11 9 11 21 0 11 4 18 9 15 5 -3 12 1 15
10 4 9 9 14 13 11 3 -3 20 1 37 11 29 15 30 17 9 20 -20 3 -21 6 -12 24 6 11
7 18 2 16 -4 -2 -23 -10 -40 -17 -18 -7 -33 -18 -33 -24 0 -7 -11 -17 -23 -23
-28 -12 -50 5 -42 33 3 10 -2 2 -12 -17 -10 -19 -22 -38 -27 -41 -5 -4 -6 -17
-3 -29 7 -26 -12 -60 -33 -60 -10 0 -16 -12 -18 -41 -2 -26 1 -38 8 -34 5 3
20 -1 32 -9 18 -13 19 -16 5 -16 -20 0 -21 -4 -6 -32 8 -14 8 -23 0 -31 -16
-16 -14 -40 4 -33 9 3 15 0 15 -9 0 -8 6 -18 13 -22 7 -4 18 -19 24 -33 11
-24 12 -24 12 -3 1 16 6 21 16 17 17 -7 21 -34 5 -34 -5 0 -10 -7 -10 -15 0
-8 6 -15 14 -15 9 0 16 -12 18 -27 2 -21 8 -27 22 -25 13 3 17 -1 13 -12 -3
-8 -2 -18 4 -22 5 -3 7 -14 4 -25 -5 -15 -2 -18 12 -16 10 1 24 6 30 10 10 6
11 2 3 -18 -13 -35 -13 -35 11 -35 16 0 20 5 16 19 -3 12 1 22 10 25 21 9 23
8 23 -10 0 -12 7 -15 25 -12 14 3 28 1 31 -4 3 -5 20 -8 38 -7 59 4 76 0 70
-16 -5 -11 -2 -13 10 -9 15 6 21 -4 17 -34 -1 -7 5 -19 14 -28 8 -9 15 -11 15
-4 0 21 38 -9 44 -36 5 -20 10 -24 19 -15 6 6 15 11 21 11 5 0 6 -3 3 -7 -4
-3 -2 -12 4 -19 6 -8 8 -21 5 -30 -8 -22 21 -54 48 -54 12 0 32 -7 45 -16 19
-14 25 -14 32 -3 7 11 10 9 15 -8 4 -13 10 -23 15 -23 5 0 9 -4 9 -10 0 -5 -7
-10 -16 -10 -8 0 -13 -4 -9 -10 3 -5 12 -7 19 -4 7 3 20 -2 29 -11 11 -10 18
-12 23 -4 3 6 -4 21 -18 33 -33 29 -34 83 -1 84 13 0 23 -7 23 -15 0 -8 -3
-12 -7 -10 -5 3 -9 -8 -10 -24 -2 -23 2 -29 17 -29 10 0 22 5 26 12 5 8 0 9
-14 6 -12 -4 -20 -3 -17 2 3 4 14 10 25 13 20 5 21 3 24 -39 0 -11 6 -27 13
-35 7 -9 9 -26 6 -40 -6 -24 -6 -24 15 -5 26 23 42 14 17 -10 -12 -12 -13 -19
-5 -24 8 -5 4 -9 -9 -13 -12 -3 -21 -1 -21 4 0 5 -10 4 -22 -3 -13 -7 -29 -11
-35 -10 -8 2 -13 -7 -13 -20 0 -14 3 -18 8 -12 7 11 32 18 59 15 7 0 10 -8 7
-16 -4 -9 0 -15 9 -15 17 0 32 -18 23 -27 -3 -3 -12 0 -21 7 -8 7 -15 8 -15 2
0 -5 7 -16 17 -23 13 -11 17 -11 20 -1 3 6 13 12 24 12 10 0 19 4 19 10 0 13
29 1 52 -22 10 -10 24 -15 34 -11 11 4 22 -1 30 -12 13 -17 14 -17 14 -2 0 9
5 17 10 17 6 0 10 9 10 20 0 17 -3 18 -26 9 -15 -5 -28 -8 -30 -6 -7 6 9 47
18 47 5 0 6 -5 3 -10 -3 -6 -1 -10 4 -10 6 0 11 11 11 25 0 14 5 25 10 25 6 0
10 -7 10 -15 0 -8 5 -15 11 -15 6 0 8 -9 4 -22 -5 -20 -4 -21 7 -7 7 8 21 18
31 22 11 4 15 12 11 18 -4 8 -3 9 4 5 7 -4 17 -4 24 0 18 11 58 14 58 4 0 -5
-6 -11 -12 -13 -7 -3 2 -6 20 -6 37 -1 35 -21 -2 -21 -28 0 -51 -24 -40 -42 5
-10 4 -11 -7 0 -18 17 -30 15 -22 -4 5 -14 3 -15 -18 -4 -17 10 -24 10 -27 1
-2 -6 -10 -11 -17 -11 -14 0 -29 -29 -20 -38 3 -3 5 0 5 7 0 9 9 12 24 9 17
-4 23 -1 19 9 -3 7 0 13 6 13 6 0 11 -7 11 -15 0 -8 5 -15 10 -15 6 0 10 5 10
11 0 7 11 9 30 6 33 -7 35 -5 20 23 -15 29 10 44 40 23 l24 -17 -21 -6 c-16
-3 -20 -9 -14 -19 13 -21 54 -4 48 20 -3 10 -1 22 4 25 5 3 9 10 9 17 0 8 -3
8 -12 -1 -14 -14 -38 -16 -38 -3 0 5 9 13 20 16 15 5 19 12 15 26 -5 14 -3 17
9 13 9 -3 16 -13 16 -21 0 -8 4 -12 9 -8 6 3 14 -2 19 -11 14 -25 33 -7 27 24
-5 25 -5 25 4 5 12 -27 19 -30 17 -5 0 10 5 16 14 14 8 -2 20 4 27 14 7 10 16
15 19 11 4 -3 -1 -13 -9 -22 -19 -18 -12 -45 12 -45 14 1 13 3 -3 15 -11 8
-14 16 -8 16 7 1 18 2 25 3 15 1 19 49 4 58 -6 4 -8 11 -3 15 5 4 11 2 13 -4
3 -7 12 -13 21 -13 13 0 13 -3 -4 -16 -17 -14 -18 -15 -1 -10 24 8 44 -4 26
-15 -7 -4 -10 -11 -6 -16 11 -10 28 18 19 32 -4 5 -7 15 -7 20 -1 15 25 38 33
30 4 -4 1 -10 -5 -12 -7 -3 -13 -12 -13 -20 0 -14 3 -14 19 1 11 10 25 15 30
11 6 -3 11 0 11 9 0 14 23 16 36 3 13 -13 26 -7 20 8 -4 11 3 17 24 22 22 4
30 11 31 27 0 11 3 16 5 9 4 -8 11 -6 25 8 19 19 55 27 44 9 -3 -5 -2 -10 2
-10 5 0 9 18 8 40 0 25 -5 40 -12 40 -7 0 -13 5 -13 11 0 5 5 7 10 4 6 -3 10
1 10 10 0 8 -8 19 -17 22 -19 7 -33 22 -33 37 0 6 9 0 21 -12 11 -12 24 -20
30 -17 5 4 9 1 9 -6 0 -7 3 -9 7 -5 4 4 8 17 8 29 0 15 7 23 23 25 12 2 20 8
17 13 -9 13 -21 11 -40 -8 -14 -13 -18 -14 -25 -3 -5 8 -6 18 -4 22 3 4 -4 8
-15 8 -12 0 -21 5 -21 10 0 6 10 10 22 10 17 0 19 3 10 12 -9 9 -16 7 -32 -7
-13 -12 -20 -14 -20 -5 0 10 -4 9 -17 -1 -13 -11 -15 -11 -9 -1 5 9 -2 17 -23
25 -17 6 -31 15 -31 20 0 5 7 6 16 3 10 -4 22 1 30 11 12 16 13 16 14 -9 0
-32 15 -36 30 -9 5 11 19 23 30 26 15 5 18 11 11 23 -10 21 -4 43 17 60 13 10
14 18 5 42 -9 24 -9 30 3 30 8 0 19 9 26 20 16 25 30 26 21 3 -5 -15 -3 -16 7
-6 9 8 10 16 3 25 -5 7 -10 27 -10 43 -1 17 1 24 4 18 7 -19 23 -16 16 3 -10
26 -48 13 -51 -18 -4 -30 -19 -37 -28 -13 -4 8 -10 15 -16 15 -5 0 -6 -4 -3
-10 3 -5 1 -10 -4 -10 -20 0 -11 20 12 30 17 7 18 9 5 9 -10 1 -23 10 -30 20
-9 15 -16 17 -29 10 -12 -6 -19 -4 -23 6 -6 16 10 30 18 16 4 -5 16 -4 31 2
25 12 34 27 16 27 -6 0 -9 9 -8 20 2 25 17 27 17 3 0 -14 2 -15 9 -4 5 7 11 9
14 5 9 -16 11 -59 3 -72 -4 -7 -6 -16 -3 -18 9 -9 49 66 43 81 -3 9 1 15 10
15 8 0 14 7 12 16 -2 9 14 25 40 41 27 16 42 21 40 12 -2 -7 -16 -20 -32 -28
-19 -10 -30 -25 -32 -41 -2 -14 0 -19 2 -12 7 14 34 16 34 2 0 -5 -4 -10 -10
-10 -5 0 -10 -7 -10 -15 0 -9 -6 -12 -15 -9 -11 5 -13 2 -9 -10 3 -9 10 -16
14 -16 5 0 6 -10 4 -22 -4 -16 -1 -14 9 7 8 17 12 33 10 38 -2 4 5 7 17 7 12
0 19 4 15 9 -8 15 7 20 32 10 16 -6 20 -13 16 -31 -3 -13 -3 -20 1 -17 4 4 8
23 10 43 2 33 0 36 -18 30 -18 -6 -19 -5 -7 9 7 9 17 14 22 11 5 -3 9 7 10 23
0 30 17 78 18 54 1 -8 4 -11 8 -8 3 4 12 2 18 -3 16 -13 28 13 27 55 -1 26 0
27 7 10 7 -14 10 -16 10 -5 1 9 -5 22 -11 29 -11 11 -8 12 12 6 22 -7 23 -6
11 8 -7 9 -17 14 -22 11 -5 -3 -9 -1 -9 5 0 6 -10 20 -22 32 -17 16 -18 20 -6
16 11 -4 15 -2 12 7 -3 7 2 16 10 19 10 4 13 1 10 -8 -3 -8 -2 -20 2 -26 5 -9
10 -5 16 12 7 17 5 26 -6 35 -9 6 -16 17 -16 23 0 8 6 6 17 -5 11 -11 18 -13
21 -5 5 14 32 15 32 1 0 -5 5 -10 10 -10 6 0 10 9 10 20 0 11 -5 20 -11 20 -6
0 -9 6 -6 14 3 7 0 19 -6 25 -9 9 -8 15 6 22 17 10 24 49 9 49 -5 0 -14 -10
-19 -22 -10 -22 -11 -22 -9 4 0 14 4 24 7 22 4 -2 6 7 5 20 0 13 -5 24 -10 23
-5 -1 -11 4 -14 12 -2 8 0 11 5 8 6 -4 15 5 21 18 16 34 24 31 44 -12 13 -29
17 -33 17 -16 1 12 7 24 14 26 7 3 5 6 -5 6 -10 1 -18 7 -18 15 0 9 7 12 19 9
14 -3 20 2 23 21 4 19 1 26 -10 26 -13 0 -13 3 -4 12 15 15 16 72 1 63 -6 -4
-8 -13 -5 -21 3 -8 1 -14 -4 -14 -6 0 -10 4 -10 8 0 4 -13 13 -30 19 -19 7
-30 18 -30 30 1 16 2 16 19 -4 20 -24 39 -18 39 12 -1 42 2 56 12 50 6 -3 10
-1 10 4 0 6 -6 11 -12 11 -9 0 -8 4 2 10 12 7 12 10 1 10 -7 0 -11 6 -8 13 3
8 2 20 -3 27 -5 9 -10 3 -15 -19 -7 -32 -25 -43 -25 -15 0 8 -4 12 -10 9 -5
-3 -10 -25 -10 -47 0 -23 -3 -38 -7 -34 -5 4 -8 24 -8 44 0 28 -4 36 -15 34
-8 -2 -12 0 -8 4 5 4 -1 13 -12 21 -22 16 -27 37 -7 30 6 -2 11 -10 9 -16 -1
-6 2 -11 8 -11 14 0 13 23 -2 38 -9 9 -7 13 6 18 13 5 14 9 5 20 -9 11 -6 16
15 24 25 9 36 30 16 30 -5 0 -10 -5 -10 -11 0 -5 -4 -8 -10 -4 -5 3 -6 13 -3
23 4 12 -1 10 -15 -6 l-21 -24 -28 28 c-18 18 -21 26 -10 21 21 -8 22 2 2 30
-14 20 -14 23 0 31 14 7 14 10 2 21 -8 6 -13 21 -10 31 3 11 0 20 -6 20 -6 0
-11 14 -11 30 0 17 -4 30 -8 30 -11 0 -10 -64 1 -71 5 -4 7 -13 5 -20 -3 -8
-16 10 -31 39 -14 28 -22 52 -17 52 16 0 12 17 -5 24 -18 6 -45 -2 -45 -15 0
-4 6 -6 13 -3 17 6 41 -56 26 -71 -6 -6 -9 -6 -7 0 2 6 -1 11 -7 12 -5 1 -9
-7 -7 -17 4 -24 -11 -26 -28 -5 -9 10 -9 15 -1 15 20 0 12 18 -11 23 -14 4
-26 1 -31 -8 -4 -8 -15 -15 -24 -15 -11 0 -14 -6 -9 -24 3 -14 2 -36 -3 -49
-6 -14 -7 -27 -4 -30 6 -6 44 13 56 28 5 6 6 0 2 -11 -4 -16 0 -23 15 -27 16
-4 24 1 32 21 10 25 11 26 18 7 5 -11 9 -16 9 -12 1 4 7 2 15 -5 8 -7 12 -17
9 -21 -3 -4 1 -15 8 -23 9 -11 9 -20 0 -41 -6 -14 -14 -23 -18 -20 -3 4 0 13
7 22 7 9 11 18 8 20 -9 9 -38 -7 -38 -20 0 -7 -7 -15 -15 -19 -24 -9 -17 -25
8 -19 15 3 18 2 9 -4 -7 -5 -11 -16 -9 -24 2 -8 2 -10 -1 -6 -2 4 -19 5 -38 1
-22 -4 -34 -2 -34 5 0 6 -5 11 -11 11 -5 0 -7 -5 -4 -10 4 -6 2 -17 -4 -24 -9
-10 -7 -15 5 -20 10 -4 21 -1 25 6 6 9 10 8 14 -4 6 -14 12 -15 33 -7 22 8 25
8 15 -2 -7 -7 -13 -22 -13 -33 0 -19 1 -19 13 -1 8 10 19 15 25 11 6 -3 13 2
15 11 3 13 5 12 6 -6 1 -16 -3 -22 -14 -18 -18 8 -32 -13 -15 -23 9 -5 9 -9 1
-14 -15 -10 -14 -29 2 -20 10 6 10 4 0 -7 -7 -7 -13 -22 -13 -32 0 -14 -5 -18
-20 -14 -10 3 -24 -1 -30 -8 -13 -16 -3 -64 14 -66 6 -1 -2 -4 -18 -8 -21 -4
-30 -12 -31 -28 -1 -15 4 -23 14 -23 10 0 12 -3 5 -10 -13 -13 -46 -2 -38 12
3 5 -2 18 -12 29 -10 11 -14 20 -9 19 30 -6 34 2 13 23 -13 12 -22 30 -20 40
2 9 -4 20 -12 23 -17 7 -22 34 -6 34 6 0 10 9 10 20 0 11 -5 20 -11 20 -5 0
-7 5 -4 10 3 6 0 10 -7 10 -10 0 -9 3 2 11 13 9 13 10 -1 6 -9 -3 -27 2 -40
11 -21 15 -22 16 -3 23 17 7 17 8 2 8 -23 1 -25 46 -3 55 16 6 21 56 6 56 -5
0 -7 -8 -4 -18 2 -10 -3 -24 -11 -31 -13 -11 -17 -9 -27 15 -6 16 -12 42 -12
57 0 19 -5 26 -14 23 -7 -3 -13 1 -13 10 0 9 -6 14 -13 11 -10 -4 -13 2 -9 20
4 19 7 22 14 11 7 -10 8 -8 4 5 -3 10 -6 26 -7 35 0 14 -2 14 -8 -2 -6 -17 -9
-16 -24 8 -10 15 -22 24 -27 21 -6 -4 -10 3 -10 13 0 16 -6 19 -32 16 -18 -1
-37 -3 -41 -3 -5 -1 -5 -5 -2 -11 3 -5 -1 -10 -9 -10 -9 0 -16 5 -16 11 0 8
-4 8 -14 0 -18 -15 -80 -5 -97 15 -7 9 -8 14 -1 14 6 0 12 -5 14 -11 3 -9 10
-9 26 0 14 8 28 9 39 3 19 -11 55 -3 50 11 -4 13 -25 24 -57 31 -17 3 -26 13
-27 26 -2 22 12 27 21 8 3 -7 3 -2 0 12 -9 41 -26 70 -42 70 -9 0 -12 3 -9 7
9 9 -13 34 -24 27 -15 -9 -10 8 9 29 17 19 16 20 -7 7 -21 -11 -23 -10 -18 4
4 10 3 15 -3 11 -6 -3 -10 -19 -10 -36 0 -16 -5 -29 -11 -29 -6 0 -8 8 -4 19
4 13 -1 27 -15 41 -11 11 -18 25 -15 29 2 5 -3 8 -13 7 -10 0 -16 6 -16 17 1
9 -4 17 -12 17 -8 0 -14 -6 -14 -12 0 -9 -3 -9 -8 -2 -11 17 -42 25 -60 15
-12 -6 -24 -4 -37 5 -10 8 -13 14 -6 14 7 0 9 5 6 10 -4 6 -10 8 -15 5 -5 -3
-16 2 -24 11 -9 8 -16 11 -16 5 0 -6 -7 -11 -16 -11 -14 0 -14 3 -4 15 8 10 9
15 2 15 -6 0 -15 -6 -19 -12 -4 -7 -17 -20 -27 -28 -19 -15 -19 -15 -1 14 18
28 18 28 0 25 -11 -2 -22 -15 -26 -29 -4 -14 -7 -19 -8 -12 -1 6 -8 12 -16 12
-8 0 -15 7 -15 16 0 8 -4 12 -10 9 -5 -3 -10 1 -10 9 0 8 5 18 10 21 6 3 10
12 9 18 0 9 -2 9 -6 0 -6 -16 -35 -17 -51 -1 -9 9 -12 9 -12 0 0 -6 7 -15 16
-20 12 -6 13 -11 5 -16 -7 -5 -16 4 -24 23 -11 25 -16 29 -26 18 -11 -10 -13
-8 -8 11 3 13 0 22 -6 22 -8 0 -7 3 1 9 11 7 11 9 -2 14 -9 4 -16 3 -16 -1 0
-11 -47 -9 -57 2 -5 5 0 6 11 2 14 -5 17 -3 12 10 -3 8 -6 18 -6 20 0 2 -13 4
-29 4 -16 0 -34 7 -41 15 -7 8 -20 15 -29 14 -12 0 -11 -4 7 -16 12 -8 22 -20
22 -26 0 -6 -3 -7 -7 -4 -3 4 -15 -1 -25 -10 -17 -15 -20 -15 -28 -3 -8 13
-10 13 -10 -1 0 -20 54 -33 80 -19 25 13 27 13 33 -10 3 -13 0 -20 -10 -20 -8
0 -11 5 -8 10 3 6 -1 10 -9 10 -9 0 -16 -5 -16 -11 0 -5 -5 -7 -11 -4 -6 4 -9
0 -7 -10 2 -10 -2 -20 -8 -22 -7 -2 -10 5 -7 22 5 22 2 25 -21 23 -26 -2 -34
-12 -17 -22 5 -4 11 -3 14 1 2 5 2 2 0 -5 -1 -8 -3 -20 -3 -29 0 -10 -6 -13
-16 -9 -8 3 -12 2 -9 -4 3 -6 -3 -10 -13 -10 -11 0 -22 7 -26 15 -3 8 -12 12
-21 9 -21 -9 -19 -21 6 -27 11 -3 23 -15 26 -26 4 -17 11 -20 47 -16 l41 4
-31 -12 c-20 -8 -29 -17 -26 -26 3 -10 0 -12 -12 -8 -9 4 -15 3 -12 -2 3 -5
-6 -16 -20 -26 -14 -9 -23 -19 -20 -22 3 -3 16 4 30 15 l26 20 60 -31 c59 -30
60 -30 75 -11 13 18 14 18 8 -3 -3 -15 -1 -23 8 -23 10 0 10 -3 1 -12 -10 -10
-15 -10 -22 2 -5 8 -10 11 -10 6 0 -5 -6 -3 -14 3 -14 12 -46 5 -46 -10 0 -4
7 -6 15 -3 8 4 15 3 15 -1 0 -3 -7 -13 -15 -21 -13 -14 -15 -14 -15 0 0 9 -5
16 -11 16 -7 0 -9 11 -6 26 l5 26 -64 -6 c-42 -4 -64 -2 -64 5 0 5 -4 7 -10 4
-5 -3 -10 -2 -10 3 0 5 9 12 20 15 14 4 18 11 14 24 -4 14 -3 15 4 4 5 -7 15
-12 22 -9 9 3 8 8 -4 20 -9 9 -16 21 -16 25 0 18 -27 46 -34 35 -3 -6 1 -18
10 -27 20 -19 11 -33 -10 -16 -8 7 -20 10 -25 7 -5 -4 -12 -2 -16 4 -3 5 -1
10 5 10 6 0 9 4 6 9 -4 5 -1 11 6 13 9 3 9 6 0 12 -7 4 -12 2 -12 -3 0 -6 -9
-11 -19 -11 -17 0 -19 5 -14 34 4 29 1 39 -21 60 -27 24 -27 25 -7 36 12 6 21
17 21 25 0 8 5 15 11 15 5 0 7 -5 3 -12 -4 -7 -3 -8 4 -4 17 10 15 43 -3 50
-8 3 -15 1 -15 -5 0 -6 -9 -4 -21 5 -16 11 -28 12 -50 4 -15 -5 -28 -13 -28
-16 4 -28 -3 -63 -16 -76 -10 -10 -12 -17 -4 -21 6 -4 8 -14 4 -22 -4 -13 -3
-14 9 -4 11 9 19 9 34 0 18 -11 19 -14 5 -24 -13 -9 -13 -16 -4 -33 16 -30 -2
-28 -24 2 -14 18 -26 23 -50 22 -26 -2 -31 1 -33 20 -1 14 5 24 16 27 16 4 16
5 0 6 -13 1 -18 10 -18 31 0 35 3 36 25 14 18 -19 25 -15 28 14 0 11 5 18 9
16 16 -10 8 9 -9 22 -17 13 -17 14 0 8 11 -4 17 -1 17 9 0 8 6 18 13 20 7 4 3
8 -10 12 -13 4 -23 11 -23 16 0 5 -18 6 -40 3 -24 -4 -45 -2 -53 5 -9 7 -24 8
-46 1 -27 -7 -32 -7 -27 5 7 19 2 19 -13 1z m34 -54 c-3 -3 -11 0 -18 7 -9 10
-8 11 6 5 10 -3 15 -9 12 -12z m85 8 c0 -5 -4 -10 -10 -10 -5 0 -10 5 -10 10
0 6 5 10 10 10 6 0 10 -4 10 -10z m65 0 c-3 -5 -16 -10 -28 -10 -18 0 -19 2
-7 10 20 13 43 13 35 0z m-95 -10 c0 -5 7 -10 16 -10 11 0 14 -6 9 -20 -4 -14
-2 -19 7 -17 7 2 10 2 6 0 -5 -3 -8 -13 -8 -23 0 -32 -18 -31 -29 2 -13 38
-14 41 -1 33 16 -10 12 7 -7 27 -9 11 -11 18 -5 18 7 0 12 -4 12 -10z m-70
-20 c0 -5 -5 -10 -11 -10 -5 0 -7 5 -4 10 3 6 8 10 11 10 2 0 4 -4 4 -10z
m260 -3 c14 -12 26 -47 16 -47 -3 0 -12 12 -21 28 -13 22 -15 23 -10 5 4 -13
3 -28 -2 -35 -11 -19 -12 -38 -2 -38 5 0 9 -5 9 -10 0 -6 -8 -5 -19 2 -11 7
-18 16 -15 20 3 4 -2 5 -10 2 -9 -3 -16 -1 -16 5 0 6 5 11 11 11 6 0 9 7 6 14
-4 11 -1 13 11 9 14 -5 15 -3 5 8 -30 31 2 54 37 26z m-231 -21 c7 -8 8 -17 3
-20 -6 -3 -12 3 -15 14 -6 24 -4 25 12 6z m-59 -66 c0 -16 5 -30 10 -30 6 0
10 -5 10 -11 0 -6 -7 -8 -16 -5 -8 3 -22 -1 -30 -9 -20 -19 -35 -19 -28 0 4 8
11 12 16 9 7 -5 9 4 6 24 -3 19 -1 29 6 25 5 -4 7 1 3 10 -4 11 -1 17 8 17 10
0 15 -10 15 -30z m81 7 c-18 -18 -13 -49 7 -45 9 1 18 -1 19 -6 1 -5 7 -13 15
-17 10 -7 11 -12 0 -29 -9 -15 -9 -20 0 -20 6 0 9 -2 6 -5 -15 -15 -34 8 -30
35 4 25 1 30 -17 30 -11 0 -24 0 -28 1 -4 0 -9 -4 -11 -10 -2 -6 3 -8 11 -5
12 4 14 0 10 -15 -3 -12 -8 -21 -12 -21 -11 0 -38 99 -30 111 4 8 9 4 14 -10
9 -28 21 -27 29 4 4 15 11 23 17 19 8 -4 7 -10 0 -17z m-141 -51 c0 -3 -4 -8
-10 -11 -5 -3 -10 -1 -10 4 0 6 5 11 10 11 6 0 10 -2 10 -4z m65 -26 c-3 -5 0
-10 8 -10 8 0 17 -9 20 -20 4 -15 10 -18 24 -13 17 6 17 6 1 -10 -20 -21 -28
-21 -28 -3 0 25 -26 39 -48 25 -14 -9 -23 -9 -38 0 -17 11 -17 12 7 8 18 -2
30 2 38 15 6 10 14 18 17 18 3 0 2 -4 -1 -10z m280 0 c3 -5 1 -10 -4 -10 -6 0
-11 5 -11 10 0 6 2 10 4 10 3 0 8 -4 11 -10z m295 -21 c0 -15 -4 -19 -16 -15
-9 3 -22 6 -30 6 -8 0 -14 4 -14 9 0 8 10 12 53 20 4 0 7 -8 7 -20z m30 -19
c0 -5 -4 -10 -10 -10 -5 0 -10 5 -10 10 0 6 5 10 10 10 6 0 10 -4 10 -10z
m-400 -32 c0 -19 -2 -20 -10 -8 -13 19 -13 30 0 30 6 0 10 -10 10 -22z m-123
-14 c-9 -9 -28 6 -21 18 4 6 10 6 17 -1 6 -6 8 -13 4 -17z m153 16 c0 -5 -4
-10 -10 -10 -5 0 -10 5 -10 10 0 6 5 10 10 10 6 0 10 -4 10 -10z m345 0 c3 -5
-1 -10 -9 -10 -9 0 -16 5 -16 10 0 6 4 10 9 10 6 0 13 -4 16 -10z m-273 -20
c10 0 18 -5 18 -11 0 -6 12 -9 28 -7 23 3 27 0 25 -20 -2 -16 5 -26 22 -34 14
-6 25 -15 25 -20 0 -5 5 -6 10 -3 6 3 10 -3 10 -15 0 -14 -4 -19 -12 -14 -8 5
-9 2 -5 -9 7 -19 1 -20 -60 -8 -29 6 -44 5 -47 -3 -2 -6 -5 -4 -5 5 -1 11 -14
19 -37 23 -19 4 -38 14 -41 22 -7 18 -28 18 -47 -2 -15 -14 -16 -13 -13 8 5
31 39 35 82 9 20 -11 60 -27 90 -35 50 -13 55 -13 55 2 -1 18 -62 62 -85 62
-8 0 -18 -8 -24 -17 -8 -16 -10 -14 -16 10 -4 15 -10 25 -15 22 -4 -2 -6 8 -4
23 3 38 3 37 16 24 7 -7 20 -12 30 -12z m-282 -20 c5 0 7 -7 4 -15 -4 -8 -10
-15 -15 -15 -5 0 -9 7 -9 15 0 8 -8 15 -17 15 -10 0 -25 5 -33 10 -11 8 -6 9
18 5 22 -4 32 -1 33 7 1 7 3 5 6 -4 2 -10 8 -18 13 -18z m594 17 c-3 -8 -11
-14 -19 -14 -21 0 -19 15 3 20 9 3 18 5 19 6 1 0 0 -5 -3 -12z m451 -7 c3 -6
-4 -10 -17 -10 -18 0 -20 2 -8 10 19 12 18 12 25 0z m-350 -18 c0 -18 -20 -15
-23 4 -3 10 1 15 10 12 7 -3 13 -10 13 -16z m128 11 c-7 -2 -19 -2 -25 0 -7 3
-2 5 12 5 14 0 19 -2 13 -5z m-106 -35 c-3 -8 -6 -5 -6 6 -1 11 2 17 5 13 3
-3 4 -12 1 -19z m-67 -28 c0 -5 -2 -10 -4 -10 -3 0 -8 5 -11 10 -3 6 -1 10 4
10 6 0 11 -4 11 -10z m95 0 c3 -5 1 -10 -4 -10 -6 0 -11 5 -11 10 0 6 2 10 4
10 3 0 8 -4 11 -10z m385 -10 c0 -5 -7 -7 -15 -4 -8 4 -15 8 -15 10 0 2 7 4
15 4 8 0 15 -4 15 -10z m-1622 -11 c-2 -6 -8 -10 -13 -10 -5 0 -11 4 -13 10
-2 6 4 11 13 11 9 0 15 -5 13 -11z m965 -6 c-3 -7 2 -13 11 -13 9 0 16 -4 16
-10 0 -5 -6 -7 -13 -4 -7 2 -22 -5 -32 -16 -24 -26 -37 -9 -22 30 7 17 18 28
28 27 9 -1 15 -7 12 -14z m-1063 -3 c0 -5 -4 -10 -10 -10 -5 0 -10 5 -10 10 0
6 5 10 10 10 6 0 10 -4 10 -10z m60 -5 c0 -8 -5 -15 -12 -15 -6 0 -19 -7 -29
-16 -10 -9 -26 -14 -36 -11 -14 3 -9 8 19 20 20 9 39 21 43 27 9 14 15 12 15
-5z m1205 5 c18 -8 17 -9 -7 -9 -15 -1 -30 4 -33 9 -7 12 12 12 40 0z m-565
-10 c0 -5 -5 -10 -11 -10 -5 0 -7 5 -4 10 3 6 8 10 11 10 2 0 4 -4 4 -10z
m100 0 c0 -5 -5 -10 -11 -10 -5 0 -7 5 -4 10 3 6 8 10 11 10 2 0 4 -4 4 -10z
m59 -36 c-10 -13 -10 -17 2 -24 7 -5 14 -17 14 -27 0 -11 7 -18 20 -18 26 0
47 -14 40 -26 -11 -17 -34 -9 -65 24 -30 30 -31 31 -24 7 6 -22 5 -23 -10 -11
-22 18 -20 44 4 66 19 17 19 19 2 32 -15 13 -15 13 6 3 19 -9 21 -14 11 -26z
m312 27 c-9 -6 -10 -11 -2 -15 6 -4 14 0 17 8 8 22 23 10 17 -13 -6 -24 -35
-32 -52 -14 -16 18 -7 43 16 43 14 0 15 -2 4 -9z m109 -17 c0 -8 -4 -14 -8
-14 -5 0 -17 6 -27 14 -18 13 -17 14 8 14 16 0 27 -6 27 -14z m-1020 -14 c0
-5 -2 -10 -4 -10 -3 0 -8 5 -11 10 -3 6 -1 10 4 10 6 0 11 -4 11 -10z m692
-12 c-7 -7 -12 -8 -12 -2 0 6 3 14 7 17 3 4 9 5 12 2 2 -3 -1 -11 -7 -17z
m146 -15 c2 -35 2 -36 -17 -19 -18 16 -18 19 -3 37 9 10 17 19 17 19 0 0 1
-17 3 -37z m-658 17 c0 -6 -17 -10 -37 -11 -31 0 -34 -2 -18 -9 13 -5 14 -9 5
-9 -8 0 -24 4 -35 9 -20 8 -19 8 2 16 32 13 83 15 83 4z m810 0 c0 -5 -4 -10
-10 -10 -5 0 -10 5 -10 10 0 6 5 10 10 10 6 0 10 -4 10 -10z m-1290 -10 c0 -5
-5 -10 -11 -10 -5 0 -7 5 -4 10 3 6 8 10 11 10 2 0 4 -4 4 -10z m567 -16 c-3
-3 -12 -4 -19 -1 -8 3 -5 6 6 6 11 1 17 -2 13 -5z m60 -7 c6 2 14 0 16 -4 3
-5 -6 -8 -21 -7 -40 2 -42 3 -42 14 0 7 6 7 18 2 9 -5 22 -7 29 -5z m655 -9
c-5 -22 -18 -23 -40 -2 -15 15 -14 16 7 9 14 -4 21 -3 18 2 -4 5 0 10 7 10 8
0 11 -8 8 -19z m574 -25 c-7 -7 -26 7 -26 19 0 6 6 6 15 -2 9 -7 13 -15 11
-17z m-1326 13 c0 -3 -4 -8 -10 -11 -5 -3 -10 -1 -10 4 0 6 5 11 10 11 6 0 10
-2 10 -4z m820 -16 c0 -5 -4 -10 -10 -10 -5 0 -10 5 -10 10 0 6 5 10 10 10 6
0 10 -4 10 -10z m368 -25 c-3 -3 -9 2 -12 12 -6 14 -5 15 5 6 7 -7 10 -15 7
-18z m-808 5 c0 -5 -4 -10 -10 -10 -5 0 -10 5 -10 10 0 6 5 10 10 10 6 0 10
-4 10 -10z m769 -27 c45 -26 38 -35 -9 -12 -22 11 -40 22 -40 24 0 10 19 5 49
-12z m-144 -23 c3 -6 -1 -7 -9 -4 -18 7 -21 14 -7 14 6 0 13 -4 16 -10z m158
-14 c4 -10 1 -13 -9 -9 -15 6 -19 23 -5 23 5 0 11 -7 14 -14z m117 10 c0 -3
-4 -8 -10 -11 -5 -3 -10 -1 -10 4 0 6 5 11 10 11 6 0 10 -2 10 -4z m-850 -31
c0 -2 -7 -5 -15 -9 -9 -3 -15 0 -15 9 0 9 6 12 15 9 8 -4 15 -7 15 -9z m-128
-41 c-14 -10 -13 -12 6 -18 12 -4 22 -11 22 -16 0 -7 -56 6 -68 16 -2 1 4 14
13 28 13 20 19 23 30 13 10 -9 9 -14 -3 -23z m1648 -24 c0 -5 -2 -10 -4 -10
-3 0 -8 5 -11 10 -3 6 -1 10 4 10 6 0 11 -4 11 -10z m-1635 -30 c4 -6 11 -7
17 -4 7 4 8 2 4 -4 -5 -9 -13 -9 -29 -1 -31 16 -33 19 -14 19 9 0 19 -5 22
-10z m145 -16 c0 -14 -3 -14 -15 -4 -8 7 -15 14 -15 16 0 2 7 4 15 4 8 0 15
-7 15 -16z m-70 -2 c0 -5 -12 -14 -27 -21 l-28 -12 25 21 c29 22 30 23 30 12z
m45 -22 c3 -5 2 -10 -4 -10 -5 0 -13 5 -16 10 -3 6 -2 10 4 10 5 0 13 -4 16
-10z m1565 -20 c0 -5 -4 -10 -10 -10 -5 0 -10 5 -10 10 0 6 5 10 10 10 6 0 10
-4 10 -10z m-1642 -7 c-10 -2 -28 -2 -40 0 -13 2 -5 4 17 4 22 1 32 -1 23 -4z
m62 -3 c0 -5 -5 -10 -11 -10 -5 0 -7 5 -4 10 3 6 8 10 11 10 2 0 4 -4 4 -10z
m1543 -29 c-4 -15 0 -18 21 -14 16 3 26 1 26 -7 0 -7 -8 -9 -20 -5 -13 4 -20
2 -20 -7 0 -7 -7 -2 -16 11 -14 19 -14 25 -3 32 8 5 15 9 16 9 0 0 -1 -8 -4
-19z m-303 -32 c0 -5 -5 -9 -11 -9 -6 0 -8 -8 -4 -19 6 -20 -13 -61 -28 -61
-4 0 -5 5 -2 10 10 16 13 100 3 100 -4 0 -8 5 -8 10 0 6 11 3 25 -6 14 -9 25
-20 25 -25z m-760 27 c0 -3 -4 -8 -10 -11 -5 -3 -10 -1 -10 4 0 6 5 11 10 11
6 0 10 -2 10 -4z m-495 -56 c-5 -14 -2 -20 9 -20 9 0 16 -7 16 -15 0 -21 -17
-19 -30 4 -13 25 -13 51 1 51 6 0 8 -9 4 -20z m42 -12 c-3 -8 -6 -5 -6 6 -1
11 2 17 5 13 3 -3 4 -12 1 -19z m1473 2 c-8 -5 -17 -7 -19 -4 -3 3 1 9 9 14 8
5 17 7 19 4 3 -3 -1 -9 -9 -14z m-1270 -10 c0 -5 -4 -10 -10 -10 -5 0 -10 5
-10 10 0 6 5 10 10 10 6 0 10 -4 10 -10z m10 -32 c0 -4 -7 -8 -15 -8 -8 0 -15
4 -15 8 0 5 7 9 15 9 8 0 15 -4 15 -9z m1290 -28 c0 -5 -4 -10 -10 -10 -5 0
-10 5 -10 10 0 6 5 10 10 10 6 0 10 -4 10 -10z m-470 -46 c0 -8 -4 -12 -10 -9
-5 3 -10 13 -10 21 0 8 5 12 10 9 6 -3 10 -13 10 -21z m643 -4 c3 -11 2 -20
-3 -20 -4 0 -10 9 -13 20 -3 11 -2 20 3 20 4 0 10 -9 13 -20z m-613 0 c0 -5
-4 -10 -10 -10 -5 0 -10 5 -10 10 0 6 5 10 10 10 6 0 10 -4 10 -10z m75 -60
c-3 -5 -12 -10 -18 -10 -7 0 -6 4 3 10 19 12 23 12 15 0z m272 -22 c-3 -8 -6
-5 -6 6 -1 11 2 17 5 13 3 -3 4 -12 1 -19z m-280 -34 c-3 -3 -12 -4 -19 -1 -8
3 -5 6 6 6 11 1 17 -2 13 -5z m-917 -84 c0 -5 -5 -10 -11 -10 -5 0 -7 5 -4 10
3 6 8 10 11 10 2 0 4 -4 4 -10z m1110 -20 c0 -5 -4 -10 -10 -10 -5 0 -10 5
-10 10 0 6 5 10 10 10 6 0 10 -4 10 -10z m50 -11 c0 -11 5 -17 10 -14 6 3 10
1 10 -5 0 -7 -7 -9 -16 -6 -9 3 -18 6 -20 6 -2 0 -4 9 -4 20 0 11 5 20 10 20
6 0 10 -9 10 -21z m-71 -31 c16 -27 18 -36 8 -32 -8 3 -17 13 -20 22 -3 9 -8
26 -12 37 -11 26 -3 18 24 -27z m76 -12 c14 -5 24 -1 38 16 l19 23 -7 -30 c-8
-36 -6 -34 -33 -38 -46 -7 -35 -21 15 -20 6 0 9 -7 6 -16 -11 -29 -15 -33 -23
-21 -6 10 -12 10 -26 0 -16 -10 -16 -11 -1 -6 22 7 22 1 -3 -24 l-20 -20 0 28
c0 16 3 32 8 36 12 13 9 54 -4 49 -14 -5 -25 22 -17 43 5 15 8 15 17 2 6 -8
20 -18 31 -22z m-1182 -4 c2 7 7 10 11 7 4 -3 0 -12 -8 -18 -12 -10 -17 -8
-26 11 -10 21 -10 21 3 5 11 -13 16 -15 20 -5z m968 -14 c-4 -12 -14 -24 -22
-26 -9 -2 -10 -1 -3 5 6 4 13 16 17 26 3 9 9 17 11 17 3 0 2 -10 -3 -22z m451
-75 c-5 -15 -31 -17 -52 -3 -12 8 -12 11 3 28 9 10 17 27 17 38 1 13 6 8 19
-16 9 -19 15 -41 13 -47z m-51 44 c-10 -9 -11 -8 -5 6 3 10 9 15 12 12 3 -3 0
-11 -7 -18z m-1341 3 c0 -5 -4 -10 -10 -10 -5 0 -10 5 -10 10 0 6 5 10 10 10
6 0 10 -4 10 -10z m1315 -100 c3 -5 -1 -10 -9 -10 -9 0 -16 5 -16 10 0 6 4 10
9 10 6 0 13 -4 16 -10z m-210 -10 c3 -5 -1 -10 -10 -10 -9 0 -13 5 -10 10 3 6
8 10 10 10 2 0 7 -4 10 -10z m35 0 c0 -5 -2 -10 -4 -10 -3 0 -8 5 -11 10 -3 6
-1 10 4 10 6 0 11 -4 11 -10z m-6 -40 c7 -7 3 -17 -17 -34 -15 -13 -27 -31
-27 -40 0 -17 -45 -44 -56 -33 -3 3 2 21 11 40 13 28 24 36 52 42 27 5 33 9
22 15 -8 6 -15 6 -17 0 -2 -6 -8 -10 -13 -10 -6 0 -8 4 -4 9 3 5 1 12 -5 16
-5 3 -10 1 -10 -4 0 -6 -5 -11 -11 -11 -8 0 -8 4 0 14 13 15 58 13 75 -4z m31
-58 c-3 -3 -5 0 -5 7 0 7 -4 10 -9 7 -5 -4 -7 4 -3 16 l5 22 9 -24 c5 -12 6
-25 3 -28z m152 22 c3 -8 1 -20 -6 -27 -6 -6 -11 -17 -11 -25 0 -12 3 -12 15
-2 12 10 15 10 15 -3 0 -30 -11 -45 -30 -40 -20 5 -25 58 -8 80 5 7 7 17 3 23
-3 5 -1 10 5 10 6 0 13 -7 17 -16z m-1370 -29 c0 -8 -4 -15 -9 -15 -4 0 -8 7
-8 15 0 8 4 15 8 15 5 0 9 -7 9 -15z m37 -16 c-6 -11 -24 -2 -24 11 0 5 7 7
15 4 8 -4 12 -10 9 -15z m966 -2 c0 -5 -9 -7 -20 -4 -12 3 -24 -1 -29 -11 -5
-9 -13 -13 -18 -9 -4 5 -1 14 8 21 20 14 59 16 59 3z m40 9 c0 -3 -4 -8 -10
-11 -5 -3 -10 -1 -10 4 0 6 5 11 10 11 6 0 10 -2 10 -4z m195 -18 c17 -25 35
-30 48 -13 5 6 7 5 5 -4 -2 -8 -12 -19 -22 -25 -13 -8 -20 -7 -29 5 -7 9 -20
15 -29 13 -19 -2 -24 11 -8 21 6 4 8 11 5 16 -13 20 15 8 30 -13z m-1175 -2
c0 -8 -7 -16 -15 -20 -12 -4 -13 -2 -2 14 14 24 17 25 17 6z m-715 -46 c-6 -9
-9 -9 -16 1 -10 17 0 34 13 21 6 -6 7 -16 3 -22z m1665 20 c0 -5 -4 -10 -10
-10 -5 0 -10 5 -10 10 0 6 5 10 10 10 6 0 10 -4 10 -10z m170 0 c0 -5 -7 -10
-15 -10 -8 0 -15 5 -15 10 0 6 7 10 15 10 8 0 15 -4 15 -10z m-91 -40 c-10 -7
-10 -12 -1 -23 7 -7 9 -17 5 -20 -3 -4 0 -14 8 -24 8 -10 0 -6 -17 7 -29 24
-41 50 -22 50 4 0 8 6 8 14 0 17 23 27 29 13 2 -5 -2 -13 -10 -17z m135 -3
c-7 -18 -44 -24 -44 -7 0 6 9 10 20 10 14 0 18 5 13 18 -4 13 -3 14 6 6 6 -6
9 -18 5 -27z m-94 13 c0 -5 -4 -10 -10 -10 -5 0 -10 5 -10 10 0 6 5 10 10 10
6 0 10 -4 10 -10z m-1150 -29 c0 -6 -4 -13 -10 -16 -5 -3 -10 1 -10 9 0 9 5
16 10 16 6 0 10 -4 10 -9z m1156 -15 c9 -10 10 -17 4 -21 -6 -4 -7 -11 -4 -17
5 -7 2 -8 -5 -4 -7 5 -10 14 -7 21 2 7 -1 18 -7 24 -6 6 -8 11 -3 11 4 0 14
-6 22 -14z m-146 -11 c0 -9 -6 -12 -16 -8 -13 5 -13 7 -2 14 17 11 18 11 18
-6z m35 -15 c-3 -5 -11 -10 -16 -10 -6 0 -7 5 -4 10 3 6 11 10 16 10 6 0 7 -4
4 -10z m-59 -41 c3 -6 1 -16 -6 -22 -10 -9 -12 -8 -7 5 3 9 1 19 -6 22 -9 3
-9 5 0 5 6 1 15 -4 19 -10z m84 -19 c0 -5 -2 -10 -4 -10 -3 0 -8 5 -11 10 -3
6 -1 10 4 10 6 0 11 -4 11 -10z m-1100 -62 c0 -5 -4 -8 -10 -8 -5 0 -10 10
-10 23 0 18 2 19 10 7 5 -8 10 -18 10 -22z m1110 -18 c0 -5 -2 -10 -4 -10 -3
0 -8 5 -11 10 -3 6 -1 10 4 10 6 0 11 -4 11 -10z m-1340 -20 c0 -5 -2 -10 -4
-10 -3 0 -8 5 -11 10 -3 6 -1 10 4 10 6 0 11 -4 11 -10z m1340 -25 c16 -19 0
-19 -26 0 -16 12 -16 14 -3 15 9 0 22 -7 29 -15z m-45 -15 c3 -5 1 -10 -4 -10
-6 0 -11 5 -11 10 0 6 2 10 4 10 3 0 8 -4 11 -10z m-1549 -56 c-4 -9 -2 -13 5
-8 7 4 10 2 8 -5 -3 -7 -9 -11 -14 -10 -37 9 -45 12 -45 21 0 5 4 7 9 3 5 -3
12 -1 16 5 10 16 28 12 21 -6z m1451 -19 c-15 -16 -22 -11 -13 10 3 9 10 13
16 10 6 -4 5 -11 -3 -20z m-627 -15 c0 -11 -4 -20 -10 -20 -5 0 -10 9 -10 20
0 11 5 20 10 20 6 0 10 -9 10 -20z m810 0 c0 -5 -2 -10 -4 -10 -3 0 -8 5 -11
10 -3 6 -1 10 4 10 6 0 11 -4 11 -10z m-30 -10 c0 -5 -5 -10 -11 -10 -5 0 -7
5 -4 10 3 6 8 10 11 10 2 0 4 -4 4 -10z m-1583 -15 c8 -22 -6 -33 -17 -15 -13
20 -12 30 0 30 6 0 13 -7 17 -15z m1518 -4 c-3 -5 -1 -12 5 -16 15 -10 2 -25
-16 -18 -13 5 -13 7 -2 14 10 7 9 9 -4 9 -10 0 -18 -4 -18 -8 0 -5 -7 -9 -15
-9 -23 0 -18 7 18 22 39 17 40 17 32 6z m85 -6 c-7 -9 -15 -13 -17 -11 -7 7 7
26 19 26 6 0 6 -6 -2 -15z m-1486 -24 c3 -5 -1 -11 -9 -15 -9 -3 -15 0 -15 9
0 16 16 20 24 6z m1466 -11 c0 -5 -4 -10 -9 -10 -6 0 -13 5 -16 10 -3 6 1 10
9 10 9 0 16 -4 16 -10z m-75 -20 c3 -6 -1 -7 -9 -4 -18 7 -21 14 -7 14 6 0 13
-4 16 -10z m60 -12 c5 4 5 1 1 -5 -11 -20 -23 -15 -29 10 -5 20 -5 20 7 5 7
-10 17 -14 21 -10z m-773 -37 c2 -17 1 -28 -4 -25 -8 5 -12 54 -4 54 2 0 6
-13 8 -29z m655 -46 c-1 -41 -5 -75 -8 -75 -8 0 -19 27 -19 47 0 9 -9 24 -20
33 -20 18 -20 18 4 22 14 3 27 0 30 -6 2 -6 5 4 5 22 1 17 3 32 5 32 3 0 4
-34 3 -75z m-1017 49 c0 -8 -4 -12 -10 -9 -5 3 -10 10 -10 16 0 5 5 9 10 9 6
0 10 -7 10 -16z m887 -14 c-4 -17 -2 -20 14 -15 11 4 19 2 19 -5 0 -6 -4 -9
-9 -5 -5 3 -11 -1 -13 -9 -3 -13 -6 -12 -23 1 -14 11 -16 17 -7 20 6 3 12 11
12 19 0 8 3 14 6 14 4 0 4 -9 1 -20z m-837 0 c0 -5 -2 -10 -4 -10 -3 0 -8 5
-11 10 -3 6 -1 10 4 10 6 0 11 -4 11 -10z m-100 -16 c0 -2 -7 -4 -15 -4 -8 0
-15 4 -15 10 0 5 7 7 15 4 8 -4 15 -8 15 -10z m381 -37 c-10 -9 -11 -8 -5 6 3
10 9 15 12 12 3 -3 0 -11 -7 -18z m-214 7 c-3 -3 -12 -4 -19 -1 -8 3 -5 6 6 6
11 1 17 -2 13 -5z m-117 -18 c0 -8 10 -16 22 -18 12 -2 23 -9 26 -17 3 -9 0
-11 -7 -7 -7 4 -20 5 -29 1 -14 -5 -10 -9 16 -21 19 -8 31 -18 27 -24 -5 -7
-12 -5 -20 7 -13 17 -14 17 -29 -2 -15 -19 -15 -19 -16 11 0 19 -6 34 -15 38
-20 7 -19 26 1 26 8 0 12 5 9 10 -3 6 -1 10 4 10 6 0 11 -6 11 -14z m1103 -8
c4 -10 8 -9 16 2 19 28 22 2 3 -29 -19 -32 -20 -32 -27 -9 -13 40 -13 48 -5
48 5 0 11 -6 13 -12z m-946 -13 c10 -27 -6 -30 -29 -7 l-22 22 22 0 c12 0 25
-7 29 -15z m223 -38 c0 -4 -7 -10 -15 -13 -22 -9 -18 -24 5 -24 13 0 20 7 20
20 0 11 6 20 14 20 9 0 13 -7 11 -20 -5 -28 -14 -40 -29 -40 -9 0 -14 -13 -14
-38 0 -21 -2 -42 -3 -48 -5 -16 25 -54 44 -54 11 0 20 10 24 30 3 17 12 30 19
30 8 0 11 6 8 15 -4 8 -10 15 -16 15 -5 0 -6 -4 -3 -10 3 -5 0 -10 -7 -10 -8
0 -14 -10 -15 -21 -2 -28 -23 -51 -23 -26 0 9 -4 17 -10 17 -5 0 -10 9 -10 21
0 13 4 18 13 13 9 -6 9 -4 1 7 -11 13 -4 54 7 47 3 -2 13 3 22 11 21 17 22 8
1 -13 -11 -12 -13 -20 -5 -33 8 -14 10 -15 11 -3 0 8 9 21 20 28 11 7 20 17
20 23 0 5 -4 7 -10 4 -6 -3 -10 5 -10 19 0 14 5 28 10 31 6 3 10 1 10 -6 0
-10 3 -10 12 -1 18 18 38 14 38 -8 0 -10 8 -24 18 -30 9 -6 11 -10 3 -8 -8 2
-25 -6 -38 -18 -27 -25 -30 -36 -6 -27 13 5 15 2 11 -15 -4 -12 -2 -22 4 -22
6 0 7 -8 3 -17 -5 -15 -4 -16 6 -5 17 16 30 15 23 -2 -3 -8 2 -17 13 -20 10
-3 3 -4 -15 -2 -24 2 -31 -1 -28 -11 3 -7 2 -12 -2 -11 -4 1 -20 -4 -36 -11
-22 -9 -31 -9 -36 0 -11 17 -25 -11 -21 -43 2 -19 -2 -28 -12 -28 -10 0 -13 7
-10 19 5 19 -24 35 -59 32 -9 -1 -19 3 -23 10 -5 8 -1 9 14 4 17 -5 20 -3 15
12 -5 15 -4 16 5 3 6 -8 11 -11 11 -6 0 5 7 3 15 -4 8 -7 15 -8 15 -3 0 20
-45 35 -73 24 -29 -11 -40 -2 -31 26 3 10 2 14 -3 8 -4 -5 -14 -11 -21 -13
-10 -2 -10 2 0 17 7 11 14 18 18 16 3 -1 12 4 20 13 13 14 12 15 -3 9 -11 -4
-17 -1 -17 8 0 8 7 15 15 15 18 0 35 31 35 64 0 14 4 26 9 26 5 0 7 9 4 21 -5
19 -4 20 16 8 11 -8 21 -17 21 -22z m503 16 c-7 -3 -9 -12 -6 -21 4 -13 3 -14
-6 -6 -14 13 -3 47 12 37 8 -5 8 -8 0 -10z m-798 -23 c-6 -9 -9 -9 -16 1 -10
17 0 34 13 21 6 -6 7 -16 3 -22z m55 10 c0 -5 -5 -10 -11 -10 -5 0 -7 -4 -4
-10 3 -5 2 -10 -3 -10 -12 0 -23 26 -15 34 10 10 33 7 33 -4z m40 -19 c0 -4
-3 -11 -7 -14 -8 -9 -34 13 -28 24 6 9 35 1 35 -10z m500 -6 c0 -19 -5 -25
-22 -25 -20 0 -20 1 -5 18 10 10 14 22 10 25 -3 4 -1 7 5 7 7 0 12 -11 12 -25z
m348 -3 c2 -7 -3 -12 -12 -12 -9 0 -16 5 -16 10 0 6 -7 10 -16 10 -8 0 -13 4
-9 10 7 11 47 -2 53 -18z m-721 12 c-3 -3 -12 -4 -19 -1 -8 3 -5 6 6 6 11 1
17 -2 13 -5z m521 -19 c-3 -3 -9 2 -12 12 -6 14 -5 15 5 6 7 -7 10 -15 7 -18z
m-220 4 c2 6 11 11 19 11 13 0 13 -3 3 -15 -10 -12 -10 -18 -1 -29 8 -9 -5 -6
-32 7 -25 12 -43 25 -40 30 2 4 14 2 26 -4 16 -9 22 -9 25 0z m256 -33 c-3
-14 -12 -26 -18 -26 -16 0 -54 29 -39 30 6 0 15 -5 18 -10 10 -17 25 -1 25 28
0 18 3 23 11 15 5 -5 7 -22 3 -37z m254 38 c12 -4 22 -10 22 -15 0 -8 -33 -4
-51 6 -6 4 -13 -2 -16 -14 -7 -29 -18 -26 -21 4 -2 27 17 32 66 19z m-329 -13
c10 -6 10 -10 1 -16 -6 -4 -9 -14 -5 -24 5 -13 4 -13 -6 -4 -14 14 -23 53 -11
53 4 0 13 -4 21 -9z m177 -36 c0 -35 -3 -44 -14 -40 -8 3 -16 -3 -19 -15 -3
-11 -12 -20 -19 -20 -24 0 -28 31 -9 67 18 33 20 34 33 16 14 -17 14 -17 8 0
-6 20 0 37 13 37 4 0 8 -20 7 -45z m-743 13 c15 -7 27 -16 27 -20 0 -12 -18
-10 -25 3 -4 6 -17 14 -29 19 -11 5 -16 9 -10 9 5 1 22 -5 37 -11z m-136 -4
c-3 -3 -12 -4 -19 -1 -8 3 -5 6 6 6 11 1 17 -2 13 -5z m515 -36 c-9 -9 -12 -7
-12 12 0 19 3 21 12 12 9 -9 9 -15 0 -24z m275 0 c-3 -8 -6 -5 -6 6 -1 11 2
17 5 13 3 -3 4 -12 1 -19z m-303 -28 c3 -19 3 -30 -2 -24 -4 6 -12 13 -18 15
-8 3 -9 12 -3 28 11 29 14 26 23 -19z m78 23 c18 -16 18 -16 12 3 -7 16 -5 17
8 7 8 -7 18 -11 22 -8 3 3 2 0 -4 -7 -6 -8 -4 -15 6 -22 11 -9 5 -11 -26 -10
-46 1 -61 11 -40 24 10 7 11 10 3 10 -7 0 -13 5 -13 10 0 15 11 12 32 -7z
m101 -18 c-3 -8 -9 -15 -14 -15 -10 0 -12 24 -3 33 11 11 24 -3 17 -18z m-508
-27 c-12 -16 -16 -18 -11 -5 3 10 6 26 6 35 0 12 3 13 11 5 8 -8 7 -17 -6 -35z
m372 7 c8 -22 -6 -33 -17 -15 -13 20 -12 30 0 30 6 0 13 -7 17 -15z m171 -12
c-2 -14 -9 -29 -17 -31 -10 -3 -11 0 -5 9 5 8 7 22 6 32 -2 9 2 17 8 17 6 0
10 -12 8 -27z m83 3 c5 3 4 -5 -2 -18 -11 -25 -47 -53 -56 -44 -3 3 8 16 23
30 16 14 24 26 17 26 -8 0 -10 7 -5 18 6 16 7 16 10 -1 2 -9 8 -15 13 -11z
m-121 -29 c0 -16 -6 -23 -20 -24 -15 -1 -20 4 -19 20 0 12 3 16 6 10 7 -18 23
-16 23 2 0 8 2 15 5 15 3 0 5 -10 5 -23z m232 3 c18 0 18 -1 4 -16 -20 -19
-36 -10 -35 19 0 12 3 16 6 10 2 -7 14 -13 25 -13z m-282 -4 c0 -8 -7 -16 -15
-20 -18 -6 -45 2 -45 15 0 4 6 6 14 3 8 -3 17 -1 21 5 9 16 25 14 25 -3z m189
-30 c-9 -8 -10 -7 -5 7 3 10 7 24 7 30 1 7 3 4 6 -7 3 -10 -1 -23 -8 -30z
m-89 15 c0 -5 -7 -12 -16 -15 -24 -9 -28 -7 -14 9 14 17 30 20 30 6z m-257
-43 c-2 -5 0 -8 6 -8 5 0 11 8 13 18 3 16 4 16 10 0 5 -12 1 -21 -12 -28 -16
-8 -24 -6 -42 12 -15 15 -17 20 -5 15 13 -5 17 -1 18 16 0 21 1 21 8 2 5 -11
7 -23 4 -27z m67 32 c0 -5 -4 -10 -10 -10 -5 0 -10 5 -10 10 0 6 5 10 10 10 6
0 10 -4 10 -10z m101 -29 c7 11 9 9 9 -7 0 -17 -5 -20 -25 -16 -14 2 -25 11
-25 19 0 13 3 13 16 2 13 -10 17 -10 25 2z m-398 -32 c4 -16 3 -18 -9 -8 -7 6
-11 15 -8 20 8 13 11 11 17 -12z m65 4 c6 -19 -25 -16 -32 3 -4 11 -1 14 11
12 9 -2 18 -9 21 -15z m132 -18 c0 -21 -17 -18 -30 4 -15 28 -13 33 10 21 11
-6 20 -17 20 -25z m-220 -19 c0 -3 -4 -8 -10 -11 -5 -3 -10 -1 -10 4 0 6 5 11
10 11 6 0 10 -2 10 -4z m110 -8 c0 -5 -5 -8 -11 -8 -6 0 -9 -7 -6 -15 4 -8 2
-17 -2 -20 -5 -3 -14 8 -19 24 -9 27 -8 29 14 27 13 0 24 -4 24 -8z"/>
<path d="M3777 1743 c-4 -3 -7 -18 -6 -32 1 -26 1 -25 10 3 9 31 7 41 -4 29z"/>
<path d="M3610 1670 c0 -5 5 -10 11 -10 5 0 7 5 4 10 -3 6 -8 10 -11 10 -2 0
-4 -4 -4 -10z"/>
<path d="M4105 4069 c-4 -6 -5 -12 -2 -15 2 -3 7 2 10 11 7 17 1 20 -8 4z"/>
<path d="M2755 4050 c-3 -5 1 -10 9 -10 9 0 16 5 16 10 0 6 -4 10 -9 10 -6 0
-13 -4 -16 -10z"/>
<path d="M4070 4051 c0 -5 7 -11 14 -14 10 -4 13 -1 9 9 -6 15 -23 19 -23 5z"/>
<path d="M2502 4033 c4 -52 -2 -63 -32 -63 -21 0 -30 5 -30 16 0 11 6 15 20
11 22 -6 48 17 30 28 -5 3 -10 2 -10 -4 0 -5 -11 -8 -25 -6 -14 1 -27 -1 -30
-4 -2 -4 -31 -4 -65 -1 -50 5 -64 3 -80 -12 -11 -11 -20 -14 -20 -8 0 5 -7 10
-15 10 -8 0 -15 -6 -15 -14 0 -8 -6 -17 -12 -19 -9 -4 -8 -6 3 -6 17 -1 61
-43 58 -57 -4 -24 3 -25 20 -5 16 18 26 21 50 16 18 -4 31 -13 31 -21 0 -9 -4
-12 -10 -9 -5 3 -10 0 -10 -7 0 -8 9 -14 20 -14 25 0 27 37 4 61 -9 9 -13 19
-10 23 4 3 11 0 17 -8 8 -13 10 -13 19 0 9 13 11 13 20 0 9 -13 13 -12 26 5
10 12 15 14 12 5 -3 -8 -15 -21 -29 -27 l-24 -13 30 0 c23 0 26 -3 15 -10 -11
-7 -7 -8 15 -6 27 3 50 26 26 26 -17 0 -13 14 9 28 16 9 26 10 41 1 15 -8 19
-8 15 0 -4 6 0 11 9 11 12 0 15 -5 11 -16 -3 -9 -6 -18 -6 -20 0 -2 -7 -4 -15
-4 -21 0 -19 -17 4 -30 28 -14 33 -13 26 10 -5 15 0 21 20 26 21 5 23 9 14 21
-10 11 -8 15 10 20 12 3 20 10 18 16 -4 12 -67 16 -67 3 0 -4 -7 -5 -16 -2 -8
3 -13 2 -10 -3 3 -5 -1 -11 -9 -15 -8 -3 -15 -1 -15 4 0 5 -7 7 -15 4 -24 -9
-18 14 10 38 19 16 22 24 13 30 -23 14 -48 9 -46 -9z m-68 -58 c3 -8 -2 -13
-12 -13 -9 1 -29 -1 -44 -5 -15 -4 -30 -3 -33 3 -4 6 7 13 24 16 17 4 31 10
31 15 0 13 28 -1 34 -16z"/>
<path d="M3110 4041 c0 -5 7 -11 14 -14 10 -4 13 -1 9 9 -6 15 -23 19 -23 5z"/>
<path d="M4118 4030 c-10 -10 -13 -22 -9 -25 5 -3 12 2 15 11 3 9 13 14 21 10
8 -3 17 -1 20 3 3 5 -2 12 -11 15 -20 8 -17 9 -36 -14z"/>
<path d="M2578 4023 c7 -3 16 -2 19 1 4 3 -2 6 -13 5 -11 0 -14 -3 -6 -6z"/>
<path d="M3176 4021 c-3 -5 2 -15 12 -22 15 -12 16 -12 5 2 -7 9 -10 19 -6 22
3 4 4 7 0 7 -3 0 -8 -4 -11 -9z"/>
<path d="M4180 4019 c0 -5 5 -7 10 -4 6 3 10 8 10 11 0 2 -4 4 -10 4 -5 0 -10
-5 -10 -11z"/>
<path d="M3245 4010 c-3 -5 -1 -10 4 -10 6 0 11 5 11 10 0 6 -2 10 -4 10 -3 0
-8 -4 -11 -10z"/>
<path d="M2195 3990 c-3 -5 -1 -10 4 -10 6 0 11 5 11 10 0 6 -2 10 -4 10 -3 0
-8 -4 -11 -10z"/>
<path d="M4360 3979 c0 -5 5 -7 10 -4 6 3 10 8 10 11 0 2 -4 4 -10 4 -5 0 -10
-5 -10 -11z"/>
<path d="M2165 3950 c2 -35 -17 -66 -35 -55 -5 3 -10 1 -10 -4 0 -6 7 -11 15
-11 8 0 15 -4 15 -10 0 -5 7 -10 15 -10 8 0 15 -5 15 -11 0 -5 -4 -8 -9 -5
-14 9 -41 -4 -41 -20 0 -8 5 -14 10 -14 6 0 10 5 10 10 0 6 12 10 27 10 14 0
23 3 20 6 -4 4 9 21 27 38 26 24 32 35 25 51 -5 13 -8 15 -9 5 0 -12 -4 -11
-15 4 -13 17 -15 18 -15 3 0 -9 -7 -17 -15 -17 -18 0 -20 26 -2 33 7 4 6 6 -5
6 -9 1 -18 7 -21 14 -2 6 -3 -4 -2 -23z m48 -61 c-8 -8 -16 -8 -30 0 -16 9
-14 10 12 11 21 0 26 -3 18 -11z"/>
<path d="M3175 3970 c3 -5 14 -10 23 -10 15 0 15 2 2 10 -20 13 -33 13 -25 0z"/>
<path d="M2094 3954 c9 -8 21 -12 27 -8 13 7 -7 24 -29 24 -10 0 -10 -4 2 -16z"/>
<path d="M3270 3961 c12 -9 12 -11 1 -11 -11 0 -11 -3 0 -17 13 -15 11 -16
-13 -9 -33 8 -36 -4 -8 -24 11 -8 20 -21 20 -28 0 -12 3 -12 15 -2 24 20 16
94 -10 98 -17 3 -17 1 -5 -7z"/>
<path d="M4080 3960 c0 -5 7 -10 16 -10 8 0 12 5 9 10 -3 6 -10 10 -16 10 -5
0 -9 -4 -9 -10z"/>
<path d="M3345 3950 c3 -5 8 -10 11 -10 2 0 4 5 4 10 0 6 -5 10 -11 10 -5 0
-7 -4 -4 -10z"/>
<path d="M3500 3949 c0 -5 -4 -7 -10 -4 -5 3 -10 1 -10 -4 0 -13 3 -13 24 -5
18 7 22 24 6 24 -5 0 -10 -5 -10 -11z"/>
<path d="M4280 3946 c0 -10 -5 -14 -12 -10 -7 5 -8 3 -3 -6 4 -7 2 -16 -6 -21
-11 -7 -11 -9 2 -9 16 0 36 47 24 58 -3 3 -5 -2 -5 -12z"/>
<path d="M2654 3939 c-3 -6 -1 -16 5 -22 8 -8 11 -5 11 11 0 24 -5 28 -16 11z"/>
<path d="M4320 3944 c0 -6 7 -19 16 -30 14 -18 14 -18 3 6 -14 31 -19 36 -19
24z"/>
<path d="M2010 3931 c0 -6 -7 -11 -15 -11 -8 0 -15 -4 -15 -10 0 -5 -8 -10
-17 -10 -15 0 -16 -2 -3 -10 8 -5 12 -11 10 -13 -15 -13 -74 -36 -80 -32 -5 3
-11 -4 -15 -15 -5 -15 -12 -19 -31 -14 -20 5 -24 2 -24 -14 0 -16 6 -20 28
-19 15 1 30 7 34 12 5 6 8 3 8 -7 0 -11 6 -15 20 -11 30 8 56 -5 41 -20 -9 -9
-14 -9 -20 1 -6 10 -10 10 -20 -2 -14 -16 2 -32 21 -20 7 4 8 3 4 -4 -4 -7
-15 -12 -24 -12 -15 0 -15 -2 -2 -10 13 -8 12 -10 -4 -10 -11 0 -16 5 -13 13
8 21 -8 38 -27 31 -13 -5 -14 -9 -5 -14 9 -6 8 -12 -4 -24 -9 -9 -19 -17 -22
-16 -22 1 -26 -2 -21 -15 3 -10 -1 -15 -12 -15 -15 0 -15 -2 -2 -11 12 -9 12
-10 -3 -5 -10 3 -21 6 -23 6 -2 0 -2 12 1 28 6 26 6 26 -9 8 -12 -15 -13 -23
-4 -33 8 -10 6 -19 -12 -38 -13 -14 -18 -25 -12 -25 7 0 12 -8 12 -17 0 -13
-3 -14 -12 -5 -7 7 -17 12 -22 12 -13 -1 24 -30 37 -30 5 0 7 13 5 29 -2 17
-1 28 4 25 4 -3 11 2 14 11 5 11 10 13 19 5 9 -8 14 -7 17 2 4 11 8 10 21 0
19 -16 39 -8 31 12 -3 8 5 16 21 20 16 4 23 11 19 18 -5 7 0 9 14 6 13 -4 20
-2 19 6 -1 6 4 10 11 8 8 -1 11 2 6 9 -3 6 -2 14 5 18 6 4 12 19 13 34 2 28
12 35 23 17 3 -5 2 -10 -4 -10 -6 0 -8 -6 -6 -12 6 -14 55 -18 55 -5 0 4 5 7
10 7 6 0 10 -8 10 -17 1 -17 1 -17 11 0 5 9 7 22 3 28 -5 8 -1 8 14 0 28 -15
42 -14 42 4 0 8 5 15 12 15 6 0 4 7 -5 18 -22 24 -22 52 1 52 12 1 9 5 -10 16
-33 17 -35 29 -8 46 27 17 25 26 -5 20 -14 -2 -25 -10 -25 -17 0 -7 -10 -15
-22 -19 -34 -9 -48 -7 -48 5 0 6 9 9 20 6 10 -3 24 1 29 7 8 9 7 13 -2 13 -6
0 -22 3 -34 7 -14 5 -23 3 -23 -3z m-2 -42 c-2 -6 -8 -10 -13 -10 -5 0 -11 4
-13 10 -2 6 4 11 13 11 9 0 15 -5 13 -11z m92 -29 c0 -5 -4 -10 -10 -10 -5 0
-10 5 -10 10 0 6 5 10 10 10 6 0 10 -4 10 -10z m-124 -52 c5 -8 2 -9 -9 -5
-10 4 -17 1 -17 -5 0 -6 -3 -9 -6 -5 -7 7 4 27 16 27 5 0 12 -5 16 -12z m74 1
c0 -16 -29 -41 -40 -34 -5 3 -10 14 -9 23 0 11 3 12 6 5 7 -18 23 -16 23 2 0
8 5 15 10 15 6 0 10 -5 10 -11z m70 -29 c0 -5 -4 -10 -10 -10 -5 0 -10 5 -10
10 0 6 5 10 10 10 6 0 10 -4 10 -10z"/>
<path d="M3158 3933 c14 -5 17 -53 2 -53 -5 0 -10 -9 -10 -20 0 -14 7 -20 24
-20 22 0 24 4 23 49 -2 45 -4 48 -27 48 -14 0 -19 -2 -12 -4z"/>
<path d="M2326 3894 c-5 -14 -4 -15 9 -4 17 14 19 20 6 20 -5 0 -12 -7 -15
-16z"/>
<path d="M2620 3900 c0 -5 5 -10 10 -10 6 0 10 5 10 10 0 6 -4 10 -10 10 -5 0
-10 -4 -10 -10z"/>
<path d="M2515 3890 c-3 -5 -1 -10 4 -10 6 0 11 5 11 10 0 6 -2 10 -4 10 -3 0
-8 -4 -11 -10z"/>
<path d="M1900 3880 c0 -5 7 -10 15 -10 8 0 15 5 15 10 0 6 -7 10 -15 10 -8 0
-15 -4 -15 -10z"/>
<path d="M2412 3868 c2 -18 -1 -22 -17 -20 -16 2 -17 1 -5 -7 27 -19 40 -12
40 19 0 17 -5 30 -11 30 -5 0 -9 -10 -7 -22z"/>
<path d="M4260 3878 c0 -4 9 -8 20 -8 11 0 20 4 20 9 0 6 -9 9 -20 8 -11 -1
-20 -5 -20 -9z"/>
<path d="M2220 3855 c-7 -9 -9 -19 -5 -23 4 -4 10 -1 12 6 3 6 8 10 13 7 4 -3
10 2 14 10 7 20 -18 20 -34 0z"/>
<path d="M2972 3861 c-11 -7 -11 -9 1 -14 16 -6 27 0 27 15 0 10 -11 10 -28
-1z"/>
<path d="M1770 3834 c-74 -34 -104 -51 -108 -62 -2 -6 21 2 51 18 36 18 59 25
68 19 13 -8 5 -13 -14 -10 -5 1 -5 -4 -1 -10 5 -8 2 -10 -8 -7 -18 7 -46 -8
-35 -19 5 -4 12 -1 16 6 6 8 11 9 15 3 7 -12 -29 -26 -44 -17 -5 3 -10 2 -10
-4 0 -5 6 -11 13 -14 6 -3 2 -4 -10 -4 -13 1 -23 5 -23 9 0 4 -7 5 -15 2 -11
-5 -15 1 -15 21 0 15 -4 24 -10 20 -6 -4 -8 -15 -5 -26 7 -22 -19 -53 -52 -63
-35 -11 -18 20 18 33 16 5 29 14 29 20 0 5 -18 2 -40 -6 -22 -9 -40 -20 -40
-25 0 -4 -6 -8 -14 -8 -7 0 -19 -7 -26 -15 -7 -9 -20 -13 -28 -10 -9 3 -12 0
-9 -7 4 -11 -18 -43 -25 -36 -6 5 -48 -29 -42 -34 3 -3 -10 -16 -28 -29 -40
-28 -70 -60 -63 -67 3 -3 20 8 38 25 61 58 90 83 96 83 3 0 15 -7 26 -16 19
-15 19 -15 -6 -11 -29 6 -33 4 -73 -40 -22 -24 -26 -35 -18 -49 9 -16 11 -16
23 4 8 12 22 22 33 22 14 0 17 6 14 24 -5 23 11 30 28 14 3 -4 12 -1 20 5 8 7
27 23 42 37 60 53 75 62 93 57 11 -3 17 -2 14 2 -2 5 7 13 20 19 14 7 25 16
25 22 0 6 5 8 10 5 6 -3 23 3 39 14 15 11 32 17 36 13 4 -4 4 3 1 16 -5 13 -3
22 3 22 6 0 11 -4 11 -10 0 -5 4 -10 10 -10 5 0 8 13 6 30 -4 34 10 56 39 63
l20 5 -20 0 c-11 1 -45 -10 -75 -24z m-217 -158 c4 -10 1 -13 -9 -9 -15 6 -19
23 -5 23 5 0 11 -7 14 -14z m-45 -38 c7 -7 12 -19 12 -27 -1 -13 -3 -13 -14 2
-8 10 -20 15 -30 11 -16 -6 -22 7 -9 19 10 11 28 8 41 -5z"/>
<path d="M2280 3851 c0 -6 4 -13 10 -16 6 -3 7 1 4 9 -7 18 -14 21 -14 7z"/>
<path d="M4248 3853 c7 -3 16 -2 19 1 4 3 -2 6 -13 5 -11 0 -14 -3 -6 -6z"/>
<path d="M2505 3840 c-4 -6 -3 -16 3 -22 6 -6 12 -6 17 2 4 6 3 16 -3 22 -6 6
-12 6 -17 -2z"/>
<path d="M4308 3843 c7 -3 16 -2 19 1 4 3 -2 6 -13 5 -11 0 -14 -3 -6 -6z"/>
<path d="M2440 3826 c0 -2 8 -10 18 -17 15 -13 16 -12 3 4 -13 16 -21 21 -21
13z"/>
<path d="M4340 3820 c0 -5 5 -10 10 -10 6 0 10 5 10 10 0 6 -4 10 -10 10 -5 0
-10 -4 -10 -10z"/>
<path d="M2173 3808 c-4 -7 -9 -22 -10 -33 -3 -20 -3 -20 12 -1 14 19 20 46
11 46 -3 0 -8 -6 -13 -12z"/>
<path d="M2543 3800 c4 -16 1 -23 -14 -27 -13 -4 -19 -14 -19 -34 0 -18 -5
-29 -14 -29 -10 0 -12 7 -9 23 5 18 3 20 -7 10 -11 -10 -16 -9 -26 5 -13 16
-13 16 -14 -1 0 -10 -4 -15 -10 -12 -12 8 -13 -5 -1 -24 8 -12 12 -13 25 -1
14 11 16 10 10 -4 -8 -21 15 -50 30 -37 18 15 91 18 89 4 -2 -9 9 -13 32 -13
42 0 69 35 41 55 -8 7 -13 15 -9 19 4 4 0 4 -9 1 -9 -4 -19 -2 -23 4 -10 17
19 39 47 36 15 -2 29 3 32 10 6 16 -20 40 -28 26 -3 -5 0 -12 6 -14 9 -4 9 -6
1 -6 -6 -1 -18 6 -27 14 -13 13 -15 13 -21 -5 -3 -11 -13 -20 -21 -20 -8 0
-12 -4 -9 -10 3 -6 -1 -7 -9 -4 -9 3 -16 13 -16 21 0 9 6 13 15 10 8 -4 17 -1
21 4 4 7 -3 10 -17 8 -13 -2 -30 1 -38 5 -11 7 -13 4 -8 -14z m47 -70 c-16
-11 -40 -13 -40 -5 0 8 44 24 50 18 2 -2 -2 -8 -10 -13z m20 -14 c0 -2 -7 -7
-16 -10 -8 -3 -12 -2 -9 4 6 10 25 14 25 6z m33 -26 c-13 -13 -38 -16 -41 -5
-1 6 2 10 7 10 5 0 13 3 17 7 4 4 11 5 16 2 5 -4 6 -10 1 -14z"/>
<path d="M4202 3811 c-11 -7 -11 -9 2 -14 10 -4 16 -1 16 8 0 17 -1 17 -18 6z"/>
<path d="M4230 3805 c0 -8 5 -15 10 -15 6 0 10 7 10 15 0 8 -4 15 -10 15 -5 0
-10 -7 -10 -15z"/>
<path d="M4437 3809 c-17 -10 -15 -29 4 -29 6 0 7 5 3 11 -4 8 1 9 17 4 13 -3
20 -3 14 2 -5 5 -12 11 -15 15 -3 4 -13 2 -23 -3z"/>
<path d="M3240 3803 c0 -5 7 -18 15 -29 13 -18 14 -18 8 4 -5 22 -23 41 -23
25z"/>
<path d="M4376 3793 c-6 -14 -5 -15 5 -6 7 7 10 15 7 18 -3 3 -9 -2 -12 -12z"/>
<path d="M2240 3790 c0 -6 -10 -8 -25 -4 -15 4 -25 2 -25 -5 0 -6 8 -8 18 -4
14 5 15 3 5 -8 -17 -17 -16 -29 2 -29 9 0 12 6 9 15 -4 9 0 15 9 15 20 0 31
16 17 25 -5 3 -10 1 -10 -5z"/>
<path d="M4320 3795 c-1 -5 -3 -20 -6 -32 -2 -13 1 -23 7 -23 7 0 18 -8 25
-17 7 -10 16 -15 20 -11 4 4 1 15 -7 24 -8 9 -19 29 -26 43 -6 14 -12 22 -13
16z"/>
<path d="M2380 3782 c0 -6 5 -12 11 -14 9 -3 9 -9 0 -26 -10 -18 -9 -21 4 -16
19 8 19 38 0 54 -9 8 -15 8 -15 2z"/>
<path d="M2480 3779 c0 -5 5 -7 10 -4 6 3 10 8 10 11 0 2 -4 4 -10 4 -5 0 -10
-5 -10 -11z"/>
<path d="M3840 3780 c-8 -5 -11 -13 -6 -17 5 -4 11 -2 13 5 3 6 9 10 14 6 5
-3 9 0 9 5 0 13 -10 14 -30 1z"/>
<path d="M4280 3770 c0 -11 2 -20 4 -20 2 0 6 9 9 20 3 11 1 20 -4 20 -5 0 -9
-9 -9 -20z"/>
<path d="M2705 3760 c-3 -5 1 -10 10 -10 9 0 13 5 10 10 -3 6 -8 10 -10 10 -2
0 -7 -4 -10 -10z"/>
<path d="M4437 3751 c-4 -17 -3 -21 5 -13 5 5 8 16 6 23 -3 8 -7 3 -11 -10z"/>
<path d="M2360 3750 c0 -5 5 -10 10 -10 6 0 10 5 10 10 0 6 -4 10 -10 10 -5 0
-10 -4 -10 -10z"/>
<path d="M2158 3734 c-38 -20 -36 -36 2 -18 17 9 30 20 30 25 0 11 1 11 -32
-7z"/>
<path d="M2240 3740 c0 -5 5 -10 11 -10 5 0 7 5 4 10 -3 6 -8 10 -11 10 -2 0
-4 -4 -4 -10z"/>
<path d="M2680 3732 c0 -18 19 -24 37 -13 10 6 13 11 6 11 -6 0 -18 3 -27 6
-9 3 -16 1 -16 -4z"/>
<path d="M2005 3721 c-7 -12 12 -24 25 -16 11 7 4 25 -10 25 -5 0 -11 -4 -15
-9z"/>
<path d="M1740 3706 c-6 -9 -10 -21 -8 -28 3 -8 9 -4 17 10 15 28 9 39 -9 18z"/>
<path d="M2050 3700 c0 -5 13 -8 29 -7 16 1 27 5 24 10 -6 10 -53 9 -53 -3z"/>
<path d="M4050 3700 c0 -5 5 -10 10 -10 6 0 10 5 10 10 0 6 -4 10 -10 10 -5 0
-10 -4 -10 -10z"/>
<path d="M4495 3700 c3 -5 8 -10 11 -10 2 0 4 5 4 10 0 6 -5 10 -11 10 -5 0
-7 -4 -4 -10z"/>
<path d="M4321 3674 c0 -11 3 -14 6 -6 3 7 2 16 -1 19 -3 4 -6 -2 -5 -13z"/>
<path d="M4345 3655 c0 -18 3 -37 8 -41 4 -4 7 0 7 9 0 10 6 17 13 17 7 1 5 6
-5 14 -10 7 -15 15 -12 18 3 4 1 8 -3 11 -5 3 -9 -9 -8 -28z"/>
<path d="M1999 3663 c-7 -10 -9 -15 -5 -11 5 4 16 2 24 -4 11 -10 17 -9 28 6
7 11 20 16 29 13 8 -4 15 -2 15 3 0 16 -37 12 -54 -6 -15 -14 -20 -11 -17 9 2
12 -6 8 -20 -10z"/>
<path d="M2891 3671 c-8 -5 -9 -11 -3 -15 5 -3 12 1 16 9 6 17 6 18 -13 6z"/>
<path d="M4493 3672 c-9 -5 -8 -11 0 -22 17 -21 34 -22 41 -3 5 12 1 14 -15
10 -15 -4 -19 -2 -15 9 6 16 5 16 -11 6z"/>
<path d="M1701 3660 c-1 -22 15 -44 28 -36 16 10 13 29 -3 23 -9 -4 -17 1 -19
11 -4 13 -5 13 -6 2z"/>
<path d="M2835 3650 c-3 -5 -1 -10 4 -10 6 0 11 5 11 10 0 6 -2 10 -4 10 -3 0
-8 -4 -11 -10z"/>
<path d="M4460 3644 c0 -8 5 -12 10 -9 6 4 8 11 5 16 -9 14 -15 11 -15 -7z"/>
<path d="M1920 3631 c0 -5 5 -13 10 -16 6 -3 10 -2 10 4 0 5 -4 13 -10 16 -5
3 -10 2 -10 -4z"/>
<path d="M1986 3603 c-4 -9 -1 -21 5 -27 9 -8 10 -7 6 6 -3 10 -2 20 3 23 6 4
10 3 10 -2 0 -4 13 -8 29 -8 20 -1 27 3 23 13 -3 10 -7 11 -12 2 -5 -9 -9 -9
-14 -1 -11 17 -43 13 -50 -6z"/>
<path d="M1805 3601 c-11 -5 -23 -7 -27 -4 -10 6 -10 -24 0 -31 4 -2 18 6 31
20 13 13 22 24 20 23 -2 0 -13 -4 -24 -8z"/>
<path d="M4414 3587 c5 -22 2 -29 -16 -37 -16 -6 -18 -9 -6 -9 9 -1 23 -4 32
-7 13 -5 15 0 10 27 -4 19 -11 39 -17 44 -6 7 -7 1 -3 -18z"/>
<path d="M4520 3600 c0 -5 7 -10 15 -10 8 0 15 5 15 10 0 6 -7 10 -15 10 -8 0
-15 -4 -15 -10z"/>
<path d="M1840 3589 c0 -5 5 -7 10 -4 6 3 10 8 10 11 0 2 -4 4 -10 4 -5 0 -10
-5 -10 -11z"/>
<path d="M4348 3593 c6 -2 18 -2 25 0 6 3 1 5 -13 5 -14 0 -19 -2 -12 -5z"/>
<path d="M1890 3579 c0 -5 5 -7 10 -4 6 3 10 8 10 11 0 2 -4 4 -10 4 -5 0 -10
-5 -10 -11z"/>
<path d="M4453 3583 c-7 -2 -13 -9 -13 -15 0 -6 7 -8 15 -4 8 3 15 1 15 -4 0
-6 -4 -10 -10 -10 -15 0 -12 -17 3 -17 6 0 20 -4 30 -8 10 -4 17 -3 17 4 0 6
8 11 18 11 10 0 13 -3 6 -8 -18 -12 -12 -42 8 -42 10 0 18 -6 18 -12 0 -7 7 0
15 16 19 35 19 46 1 46 -10 0 -12 -7 -9 -22 3 -13 3 -20 -1 -16 -4 3 -8 20
-10 37 -2 32 -16 56 -16 28 0 -24 -21 -21 -27 3 -5 19 -31 25 -60 13z"/>
<path d="M1640 3574 c0 -13 18 -39 24 -34 2 3 -2 14 -10 24 -8 11 -14 16 -14
10z"/>
<path d="M1577 3545 c-4 -8 -2 -17 2 -20 5 -2 11 4 14 15 6 23 -8 27 -16 5z"/>
<path d="M1945 3550 c-3 -5 -2 -10 4 -10 5 0 13 5 16 10 3 6 2 10 -4 10 -5 0
-13 -4 -16 -10z"/>
<path d="M2345 3550 c-3 -6 -3 -10 2 -10 4 0 1 -5 -7 -10 -12 -7 -12 -12 -2
-22 9 -9 12 -9 12 1 0 11 3 11 17 0 15 -12 16 -12 10 4 -3 9 -2 17 3 17 5 0
14 -8 19 -17 6 -11 11 -13 11 -5 0 7 4 11 9 8 5 -3 12 1 15 10 5 12 1 14 -15
9 -11 -4 -30 0 -44 9 -15 10 -26 12 -30 6z"/>
<path d="M4173 3525 c0 -8 4 -15 9 -15 4 0 8 4 8 9 0 6 -4 12 -8 15 -5 3 -9
-1 -9 -9z"/>
<path d="M1787 3519 c7 -7 15 -10 18 -7 3 3 -2 9 -12 12 -14 6 -15 5 -6 -5z"/>
<path d="M1636 3503 c-6 -14 -5 -15 5 -6 7 7 10 15 7 18 -3 3 -9 -2 -12 -12z"/>
<path d="M4225 3500 c-3 -5 -1 -10 4 -10 6 0 11 5 11 10 0 6 -2 10 -4 10 -3 0
-8 -4 -11 -10z"/>
<path d="M4485 3500 c3 -5 10 -10 16 -10 5 0 9 5 9 10 0 6 -7 10 -16 10 -8 0
-12 -4 -9 -10z"/>
<path d="M2241 3490 c-8 -4 -9 -9 -3 -11 6 -3 6 -13 1 -26 -9 -25 -38 -30 -57
-11 -9 9 -12 9 -12 1 0 -7 5 -15 11 -19 8 -4 4 -13 -12 -25 -13 -10 -19 -19
-12 -19 6 0 15 5 18 10 3 6 18 10 32 10 19 0 24 -4 19 -16 -3 -9 -2 -12 5 -8
6 3 9 14 6 24 -3 13 0 17 9 13 9 -3 12 2 9 16 -2 14 1 18 11 14 17 -6 18 -2 1
30 -9 17 -18 23 -26 17z"/>
<path d="M2292 3482 c-9 -7 -8 -13 8 -27 20 -18 20 -18 18 8 -3 29 -6 31 -26
19z"/>
<path d="M2776 3471 c-4 -6 -3 -11 3 -11 6 0 8 -7 5 -15 -4 -8 -1 -15 6 -15 6
0 8 -4 5 -10 -3 -5 -1 -10 5 -10 7 0 9 8 4 23 -11 39 -21 51 -28 38z"/>
<path d="M2849 3468 c-8 -7 -12 -12 -10 -11 2 2 9 -1 15 -7 8 -6 12 -3 12 11
0 10 -1 19 -1 19 -1 0 -8 -6 -16 -12z"/>
<path d="M1519 3453 c-13 -16 -12 -17 4 -4 9 7 17 15 17 17 0 8 -8 3 -21 -13z"/>
<path d="M1990 3448 c0 -19 2 -20 10 -8 13 19 13 30 0 30 -5 0 -10 -10 -10
-22z"/>
<path d="M2201 3461 c-8 -5 -9 -11 -3 -15 5 -3 15 1 22 9 14 16 3 20 -19 6z"/>
<path d="M1470 3440 c0 -5 5 -10 10 -10 6 0 10 5 10 10 0 6 -4 10 -10 10 -5 0
-10 -4 -10 -10z"/>
<path d="M1951 3439 c3 -24 -1 -39 -8 -38 -19 3 -33 -2 -33 -11 0 -5 9 -10 21
-10 15 0 19 -5 15 -15 -3 -8 -1 -15 4 -15 10 0 11 2 15 36 1 12 5 25 8 30 2 5
-2 15 -10 23 -12 11 -14 11 -12 0z"/>
<path d="M2565 3440 c-3 -5 -1 -10 4 -10 6 0 11 5 11 10 0 6 -2 10 -4 10 -3 0
-8 -4 -11 -10z"/>
<path d="M2623 3436 c0 -8 9 -17 19 -19 10 -3 18 0 18 6 0 8 3 8 8 -1 5 -7 16
-10 26 -6 17 6 17 8 2 16 -9 5 -25 6 -36 3 -11 -4 -20 -2 -20 4 0 6 -4 11 -8
11 -5 0 -9 -6 -9 -14z"/>
<path d="M2505 3430 c-3 -5 -1 -10 4 -10 6 0 11 5 11 10 0 6 -2 10 -4 10 -3 0
-8 -4 -11 -10z"/>
<path d="M1418 3423 c7 -3 16 -2 19 1 4 3 -2 6 -13 5 -11 0 -14 -3 -6 -6z"/>
<path d="M1987 3413 c-13 -12 -7 -18 18 -19 28 -2 34 11 9 20 -19 7 -19 7 -27
-1z"/>
<path d="M4480 3405 c-7 -9 -19 -14 -25 -11 -8 3 -11 -2 -8 -15 6 -22 19 -25
27 -6 5 10 7 10 12 0 8 -18 24 -16 24 2 0 8 -5 15 -11 15 -6 0 -9 7 -5 15 7
19 2 19 -14 0z"/>
<path d="M4776 3387 c-14 -14 -20 -16 -26 -7 -5 8 -10 8 -14 2 -3 -5 1 -13 10
-16 11 -4 15 -15 12 -35 -3 -21 -1 -28 9 -24 15 6 15 9 4 38 -6 14 -2 24 13
36 12 10 19 19 16 21 -3 3 -13 -4 -24 -15z"/>
<path d="M1550 3374 c0 -8 5 -12 10 -9 6 3 10 10 10 16 0 5 -4 9 -10 9 -5 0
-10 -7 -10 -16z"/>
<path d="M2915 3370 c3 -5 1 -10 -5 -10 -6 0 -9 -4 -5 -9 7 -13 58 -7 63 8 2
7 -3 9 -14 4 -12 -4 -15 -3 -10 5 5 8 0 12 -14 12 -12 0 -18 -4 -15 -10z"/>
<path d="M1752 3347 c-20 -22 -29 -47 -17 -47 8 0 54 53 55 63 0 14 -17 7 -38
-16z"/>
<path d="M2542 3356 l-22 -12 21 -18 c13 -11 20 -13 17 -4 -3 7 2 18 10 24 22
16 1 24 -26 10z"/>
<path d="M1170 3350 c-9 -6 -10 -10 -3 -10 6 0 15 5 18 10 8 12 4 12 -15 0z"/>
<path d="M2708 3353 c7 -3 16 -2 19 1 4 3 -2 6 -13 5 -11 0 -14 -3 -6 -6z"/>
<path d="M2750 3350 c0 -5 5 -10 10 -10 6 0 10 5 10 10 0 6 -4 10 -10 10 -5 0
-10 -4 -10 -10z"/>
<path d="M2800 3349 c0 -5 5 -7 10 -4 6 3 10 8 10 11 0 2 -4 4 -10 4 -5 0 -10
-5 -10 -11z"/>
<path d="M1876 3334 c-5 -14 -4 -15 9 -4 17 14 19 20 6 20 -5 0 -12 -7 -15
-16z"/>
<path d="M2110 3336 c0 -8 4 -17 8 -20 4 -2 8 4 8 15 0 10 -4 19 -8 19 -4 0
-8 -6 -8 -14z"/>
<path d="M2485 3330 c-3 -5 -1 -10 4 -10 6 0 11 5 11 10 0 6 -2 10 -4 10 -3 0
-8 -4 -11 -10z"/>
<path d="M2680 3320 c0 -13 11 -13 30 0 12 8 11 10 -7 10 -13 0 -23 -4 -23
-10z"/>
<path d="M1985 3300 c3 -5 12 -7 20 -3 21 7 19 13 -6 13 -11 0 -18 -4 -14 -10z"/>
<path d="M2410 3279 c0 -11 27 -12 34 -1 2 4 -4 9 -15 9 -10 1 -19 -2 -19 -8z"/>
<path d="M4583 3254 c-1 -32 0 -33 20 -19 30 21 32 53 4 53 -19 0 -23 -6 -24
-34z"/>
<path d="M1810 3265 c7 -9 15 -13 17 -11 7 7 -7 26 -19 26 -6 0 -6 -6 2 -15z"/>
<path d="M2360 3268 c0 -10 -4 -18 -10 -18 -5 0 -10 -10 -10 -22 l0 -22 20 22
c12 12 25 22 30 22 6 0 10 8 10 18 0 14 -2 15 -10 2 -9 -13 -11 -13 -20 0 -8
13 -10 12 -10 -2z"/>
<path d="M2805 3270 c-3 -5 1 -10 9 -10 9 0 16 5 16 10 0 6 -4 10 -9 10 -6 0
-13 -4 -16 -10z"/>
<path d="M1940 3260 c-8 -5 -12 -11 -9 -14 2 -3 11 -1 19 4 8 5 12 11 9 14 -2
3 -11 1 -19 -4z"/>
<path d="M2540 3245 c-19 -7 -28 -13 -20 -13 8 0 31 6 50 13 19 7 28 13 20 13
-8 0 -31 -6 -50 -13z"/>
<path d="M1805 3224 c7 -8 16 -14 18 -14 3 0 7 6 10 14 4 9 -2 14 -18 14 -20
0 -22 -3 -10 -14z"/>
<path d="M2740 3215 c-15 -8 -19 -14 -10 -14 18 -1 46 16 40 23 -3 2 -16 -2
-30 -9z"/>
<path d="M2790 3220 c0 -5 5 -10 10 -10 6 0 10 5 10 10 0 6 -4 10 -10 10 -5 0
-10 -4 -10 -10z"/>
<path d="M4536 3207 c3 -10 9 -15 12 -12 3 3 0 11 -7 18 -10 9 -11 8 -5 -6z"/>
<path d="M4881 3204 c0 -11 3 -14 6 -6 3 7 2 16 -1 19 -3 4 -6 -2 -5 -13z"/>
<path d="M4827 3191 c-3 -14 -1 -18 9 -14 8 3 14 11 14 19 0 21 -17 17 -23 -5z"/>
<path d="M2778 3193 c7 -3 16 -2 19 1 4 3 -2 6 -13 5 -11 0 -14 -3 -6 -6z"/>
<path d="M1810 3180 c-13 -8 -12 -10 3 -10 9 0 17 5 17 10 0 12 -1 12 -20 0z"/>
<path d="M2235 3180 c-3 -5 -1 -10 4 -10 6 0 11 5 11 10 0 6 -2 10 -4 10 -3 0
-8 -4 -11 -10z"/>
<path d="M1720 3165 c-7 -9 -8 -15 -2 -15 5 0 12 7 16 15 3 8 4 15 2 15 -2 0
-9 -7 -16 -15z"/>
<path d="M2335 3155 c-16 -13 -25 -24 -18 -25 6 0 18 7 27 15 8 8 19 15 25 15
5 0 13 5 16 10 12 19 -20 10 -50 -15z"/>
<path d="M2230 3150 c0 -5 5 -10 11 -10 5 0 7 5 4 10 -3 6 -8 10 -11 10 -2 0
-4 -4 -4 -10z"/>
<path d="M4440 3151 c0 -5 5 -13 10 -16 6 -3 10 -2 10 4 0 5 -4 13 -10 16 -5
3 -10 2 -10 -4z"/>
<path d="M1796 3135 c-3 -8 -1 -15 5 -15 6 0 8 -10 5 -22 -4 -14 0 -11 8 7 14
30 13 45 -4 45 -4 0 -10 -7 -14 -15z"/>
<path d="M2595 3140 c-3 -6 1 -7 9 -4 18 7 21 14 7 14 -6 0 -13 -4 -16 -10z"/>
<path d="M3055 3120 c4 -6 11 -8 16 -5 14 9 11 15 -7 15 -8 0 -12 -5 -9 -10z"/>
<path d="M4470 3120 c0 -5 5 -10 11 -10 5 0 7 5 4 10 -3 6 -8 10 -11 10 -2 0
-4 -4 -4 -10z"/>
<path d="M2126 3093 c-6 -14 -5 -15 5 -6 7 7 10 15 7 18 -3 3 -9 -2 -12 -12z"/>
<path d="M2165 3100 c3 -5 8 -10 11 -10 2 0 4 5 4 10 0 6 -5 10 -11 10 -5 0
-7 -4 -4 -10z"/>
<path d="M2106 3067 c3 -10 9 -15 12 -12 3 3 0 11 -7 18 -10 9 -11 8 -5 -6z"/>
<path d="M4552 3071 c2 -7 7 -12 11 -12 12 1 9 15 -3 20 -7 2 -11 -2 -8 -8z"/>
<path d="M4603 3043 c-4 -10 -10 -20 -14 -23 -5 -3 1 -11 11 -18 18 -11 20 -9
20 23 0 38 -7 45 -17 18z"/>
<path d="M1511 3034 c0 -11 3 -14 6 -6 3 7 2 16 -1 19 -3 4 -6 -2 -5 -13z"/>
<path d="M1579 3026 c-5 -23 -3 -66 4 -66 4 0 7 9 7 21 0 12 4 17 11 13 7 -4
10 1 7 11 -3 17 -27 34 -29 21z"/>
<path d="M1370 3005 c-24 -14 -24 -14 -4 -15 12 0 24 7 28 15 6 18 7 18 -24 0z"/>
<path d="M1482 2990 c1 -29 11 -39 22 -22 7 12 -4 52 -14 52 -5 0 -8 -13 -8
-30z"/>
<path d="M1530 2995 c0 -8 5 -15 10 -15 6 0 10 7 10 15 0 8 -4 15 -10 15 -5 0
-10 -7 -10 -15z"/>
<path d="M4560 3000 c0 -6 7 -10 15 -10 8 0 15 2 15 4 0 2 -7 6 -15 10 -8 3
-15 1 -15 -4z"/>
<path d="M1513 2933 c-7 -3 -13 -12 -13 -21 0 -15 2 -15 17 1 18 18 16 27 -4
20z"/>
<path d="M4935 2910 c4 -6 11 -8 16 -5 14 9 11 15 -7 15 -8 0 -12 -5 -9 -10z"/>
<path d="M1408 2873 c7 -3 16 -2 19 1 4 3 -2 6 -13 5 -11 0 -14 -3 -6 -6z"/>
<path d="M1434 2839 c-3 -6 -1 -16 5 -22 8 -8 11 -5 11 11 0 24 -5 28 -16 11z"/>
<path d="M965 2810 c3 -5 8 -10 11 -10 2 0 4 5 4 10 0 6 -5 10 -11 10 -5 0 -7
-4 -4 -10z"/>
<path d="M4907 2803 c-4 -3 -7 -11 -7 -17 0 -6 5 -5 12 2 6 6 9 14 7 17 -3 3
-9 2 -12 -2z"/>
<path d="M1005 2760 c3 -5 8 -10 11 -10 2 0 4 5 4 10 0 6 -5 10 -11 10 -5 0
-7 -4 -4 -10z"/>
<path d="M3312 2740 c0 -14 2 -19 5 -12 2 6 2 18 0 25 -3 6 -5 1 -5 -13z"/>
<path d="M930 2710 c0 -5 5 -10 10 -10 6 0 10 5 10 10 0 6 -4 10 -10 10 -5 0
-10 -4 -10 -10z"/>
<path d="M3010 2703 c0 -13 5 -23 10 -23 13 0 13 11 0 30 -8 12 -10 11 -10 -7z"/>
<path d="M4887 2681 c-2 -11 0 -25 7 -32 8 -9 7 -10 -7 -6 -14 5 -18 3 -15
-11 2 -9 9 -17 16 -17 7 0 17 -6 21 -14 7 -10 11 -8 16 10 5 15 3 25 -5 27 -8
3 -9 7 -2 11 15 9 3 51 -13 51 -7 0 -15 -9 -18 -19z"/>
<path d="M2834 2645 c-4 -10 -13 -13 -25 -10 -11 4 -19 2 -19 -4 0 -15 33 -14
49 2 11 10 13 9 8 -6 -4 -11 -3 -16 3 -12 13 8 13 32 0 40 -6 3 -13 -1 -16
-10z"/>
<path d="M2740 2566 c0 -8 4 -18 10 -21 5 -3 7 0 4 9 -3 8 2 16 13 19 14 4 14
5 -4 6 -14 1 -23 -5 -23 -13z"/>
<path d="M4856 2565 c-10 -8 -24 -16 -30 -18 -8 -3 -7 -8 2 -18 10 -11 12 -10
12 2 0 9 11 21 25 27 24 11 36 0 15 -13 -13 -8 -13 -35 1 -35 5 0 8 4 4 9 -3
5 -1 12 4 16 5 3 15 -3 21 -12 8 -15 9 -13 4 10 -4 19 -2 27 7 27 11 0 11 3
-1 10 -21 13 -42 12 -64 -5z"/>
<path d="M4795 2549 c-6 -19 0 -38 9 -28 10 12 16 49 7 49 -5 0 -13 -9 -16
-21z"/>
<path d="M4780 2500 c0 -5 4 -10 9 -10 6 0 13 5 16 10 3 6 -1 10 -9 10 -9 0
-16 -4 -16 -10z"/>
<path d="M4815 2440 c-3 -5 -1 -10 4 -10 6 0 11 5 11 10 0 6 -2 10 -4 10 -3 0
-8 -4 -11 -10z"/>
<path d="M4895 2421 c3 -6 -1 -13 -9 -18 -11 -6 -12 -13 -6 -23 8 -13 10 -13
10 1 0 9 7 20 16 23 16 6 11 26 -7 26 -6 0 -8 -4 -4 -9z"/>
<path d="M977 2409 c7 -7 15 -10 18 -7 3 3 -2 9 -12 12 -14 6 -15 5 -6 -5z"/>
<path d="M3260 2379 c0 -5 5 -7 10 -4 6 3 10 8 10 11 0 2 -4 4 -10 4 -5 0 -10
-5 -10 -11z"/>
<path d="M2785 2361 c-3 -5 -2 -12 3 -15 5 -3 9 1 9 9 0 17 -3 19 -12 6z"/>
<path d="M4860 2361 c0 -8 -7 -11 -15 -7 -8 3 -15 1 -15 -4 0 -5 14 -8 31 -8
16 1 27 4 22 7 -4 3 -11 10 -15 15 -5 5 -8 4 -8 -3z"/>
<path d="M4725 2290 c4 -6 11 -8 16 -5 14 9 11 15 -7 15 -8 0 -12 -5 -9 -10z"/>
<path d="M990 2280 c0 -5 7 -10 15 -10 8 0 15 5 15 10 0 6 -7 10 -15 10 -8 0
-15 -4 -15 -10z"/>
<path d="M2830 2282 c0 -5 7 -9 15 -9 8 0 15 4 15 9 0 4 -7 8 -15 8 -8 0 -15
-4 -15 -8z"/>
<path d="M3240 2271 c0 -25 6 -27 13 -6 4 8 2 17 -3 20 -6 4 -10 -3 -10 -14z"/>
<path d="M4697 2283 c-4 -3 -7 -11 -7 -17 0 -6 5 -5 12 2 6 6 9 14 7 17 -3 3
-9 2 -12 -2z"/>
<path d="M4797 2283 c-4 -3 -7 -13 -7 -22 1 -13 3 -13 11 2 11 19 8 33 -4 20z"/>
<path d="M3090 2259 c0 -5 5 -7 10 -4 6 3 10 8 10 11 0 2 -4 4 -10 4 -5 0 -10
-5 -10 -11z"/>
<path d="M3124 2259 c-3 -6 -1 -16 5 -22 8 -8 11 -5 11 11 0 24 -5 28 -16 11z"/>
<path d="M4620 2225 c0 -8 4 -15 10 -15 5 0 7 7 4 15 -4 8 -8 15 -10 15 -2 0
-4 -7 -4 -15z"/>
<path d="M4441 2214 c0 -11 3 -14 6 -6 3 7 2 16 -1 19 -3 4 -6 -2 -5 -13z"/>
<path d="M4518 2213 c7 -3 16 -2 19 1 4 3 -2 6 -13 5 -11 0 -14 -3 -6 -6z"/>
<path d="M4720 2190 c0 -5 4 -10 9 -10 6 0 13 5 16 10 3 6 -1 10 -9 10 -9 0
-16 -4 -16 -10z"/>
<path d="M4640 2174 c0 -8 5 -12 10 -9 6 4 8 11 5 16 -9 14 -15 11 -15 -7z"/>
<path d="M4580 2130 c0 -5 5 -10 11 -10 5 0 7 5 4 10 -3 6 -8 10 -11 10 -2 0
-4 -4 -4 -10z"/>
<path d="M4650 2110 c0 -5 -6 -7 -12 -5 -19 7 -38 -8 -43 -33 -3 -18 -1 -20
13 -13 26 14 67 61 54 61 -7 0 -12 -4 -12 -10z"/>
<path d="M4752 2103 c-5 -10 -6 -29 -1 -43 4 -16 7 -19 8 -7 1 9 6 17 12 17 8
0 7 5 -2 16 -10 13 -10 17 2 25 9 6 10 9 2 9 -7 0 -16 -8 -21 -17z"/>
<path d="M4700 2080 c0 -5 5 -10 11 -10 5 0 7 5 4 10 -3 6 -8 10 -11 10 -2 0
-4 -4 -4 -10z"/>
<path d="M940 2046 c0 -8 -5 -16 -11 -18 -8 -3 -9 -16 -4 -43 l8 -40 7 40 c3
22 9 45 13 52 4 6 3 14 -3 18 -5 3 -10 0 -10 -9z"/>
<path d="M4690 2041 c-14 -27 -13 -31 6 -24 8 3 13 11 10 19 -3 7 4 14 17 17
l22 4 -22 2 c-13 0 -27 -7 -33 -18z"/>
<path d="M2735 2040 c3 -5 8 -10 11 -10 2 0 4 5 4 10 0 6 -5 10 -11 10 -5 0
-7 -4 -4 -10z"/>
<path d="M2760 2018 c0 -8 5 -19 12 -26 9 -9 8 -12 -5 -12 -9 0 -17 -4 -17
-10 0 -12 10 -13 28 -1 16 10 12 53 -5 59 -7 2 -13 -3 -13 -10z"/>
<path d="M4653 2015 c-3 -9 -3 -18 -1 -21 3 -3 8 4 11 16 6 23 -1 27 -10 5z"/>
<path d="M4497 2014 c-14 -14 -7 -33 13 -31 11 1 20 7 20 15 0 7 -4 11 -9 8
-5 -4 -11 -1 -13 5 -2 5 -7 7 -11 3z"/>
<path d="M1143 1995 c-10 -11 -8 -18 7 -37 l20 -23 -9 25 c-4 14 -6 31 -4 38
6 16 1 15 -14 -3z"/>
<path d="M4540 1970 c0 -5 5 -10 10 -10 6 0 10 5 10 10 0 6 -4 10 -10 10 -5 0
-10 -4 -10 -10z"/>
<path d="M4588 1973 c7 -3 16 -2 19 1 4 3 -2 6 -13 5 -11 0 -14 -3 -6 -6z"/>
<path d="M4574 1935 c3 -9 0 -15 -9 -15 -8 0 -15 -5 -15 -11 0 -5 5 -7 10 -4
6 3 10 -1 10 -10 0 -9 4 -14 9 -10 6 3 14 -3 20 -12 10 -17 10 -17 11 0 0 9
-4 17 -10 17 -5 0 -10 14 -10 30 0 17 -5 30 -11 30 -6 0 -9 -7 -5 -15z"/>
<path d="M2980 1904 c0 -10 8 -13 25 -10 14 3 25 0 25 -5 0 -5 9 -9 20 -9 20
0 27 14 11 24 -5 3 -25 8 -45 10 -27 4 -36 1 -36 -10z"/>
<path d="M931 1894 c0 -11 3 -14 6 -6 3 7 2 16 -1 19 -3 4 -6 -2 -5 -13z"/>
<path d="M4468 1875 c5 -28 17 -33 26 -10 3 8 -2 19 -13 24 -16 9 -17 7 -13
-14z"/>
<path d="M2920 1859 c0 -5 5 -7 10 -4 6 3 10 8 10 11 0 2 -4 4 -10 4 -5 0 -10
-5 -10 -11z"/>
<path d="M4557 1864 c-11 -11 -8 -26 3 -19 6 4 9 1 8 -6 -2 -6 10 -13 26 -16
26 -4 28 -2 17 11 -7 9 -17 13 -22 11 -4 -3 -12 2 -16 10 -5 9 -12 12 -16 9z"/>
<path d="M2964 1824 c3 -9 6 -25 6 -37 0 -14 3 -18 10 -11 11 11 -3 64 -16 64
-3 0 -3 -7 0 -16z"/>
<path d="M3003 1828 c-3 -6 -1 -8 5 -4 5 3 12 1 14 -5 2 -6 11 -10 21 -8 13 3
12 6 -8 16 -17 8 -27 8 -32 1z"/>
<path d="M4540 1821 c0 -6 5 -13 10 -16 6 -3 10 1 10 9 0 9 -4 16 -10 16 -5 0
-10 -4 -10 -9z"/>
<path d="M3116 1812 c-3 -5 0 -9 7 -9 7 0 18 -2 26 -4 7 -2 16 2 18 9 5 14
-42 17 -51 4z"/>
<path d="M4540 1780 c0 -6 7 -10 15 -10 8 0 15 2 15 4 0 2 -7 6 -15 10 -8 3
-15 1 -15 -4z"/>
<path d="M3104 1762 c3 -6 0 -13 -6 -15 -7 -3 -2 -6 10 -6 25 -1 26 19 2 27
-7 3 -10 0 -6 -6z"/>
<path d="M4520 1740 c-9 -12 -21 -18 -32 -14 -20 6 -25 -12 -5 -19 9 -3 9 -9
-1 -26 -13 -22 -9 -41 9 -41 6 0 7 9 4 20 -5 16 -2 20 17 21 21 0 21 1 4 8
-18 7 -18 8 4 29 13 12 28 22 32 22 5 0 6 5 3 10 -9 15 -19 12 -35 -10z"/>
<path d="M927 1736 c-3 -8 -2 -18 3 -21 13 -8 20 9 11 24 -6 10 -10 9 -14 -3z"/>
<path d="M2980 1730 c0 -5 5 -10 10 -10 6 0 10 5 10 10 0 6 -4 10 -10 10 -5 0
-10 -4 -10 -10z"/>
<path d="M3200 1729 c0 -6 -5 -7 -11 -3 -7 4 -9 -1 -7 -12 2 -11 11 -18 21
-18 19 2 23 -11 7 -21 -5 -3 -10 -19 -10 -34 0 -15 -6 -33 -12 -40 -11 -10
-10 -12 2 -9 8 2 21 10 28 18 11 13 12 11 10 -10 -2 -14 2 -25 7 -25 26 -2 55
-18 49 -27 -4 -6 0 -14 7 -19 17 -10 7 -21 -13 -14 -10 4 -14 14 -11 26 3 11
0 19 -6 19 -7 0 -9 -5 -6 -10 4 -6 1 -17 -5 -25 -10 -12 -9 -15 4 -15 9 0 16
-4 16 -10 0 -5 11 -10 24 -10 24 0 24 2 14 32 -6 18 -17 44 -25 58 -16 31 -16
47 0 53 7 3 4 6 -7 6 -13 1 -16 4 -8 14 7 9 -1 22 -29 49 -22 20 -39 32 -39
27z m40 -84 c-7 -8 -16 -15 -21 -15 -14 0 -11 38 4 43 20 7 31 -11 17 -28z"/>
<path d="M3074 1716 c-3 -8 -4 -21 -1 -28 4 -8 6 -6 6 5 2 36 33 12 45 -35 4
-20 11 -25 26 -21 11 3 20 0 20 -6 0 -6 5 -11 10 -11 16 0 12 27 -5 34 -8 3
-15 17 -15 31 0 23 -13 31 -44 26 -4 -1 -14 3 -22 10 -11 9 -15 8 -20 -5z"/>
<path d="M2980 1691 c0 -12 26 -32 33 -25 3 4 0 13 -8 20 -16 16 -25 18 -25 5z"/>
<path d="M2955 1671 c-3 -5 -1 -12 5 -16 5 -3 10 1 10 9 0 18 -6 21 -15 7z"/>
<path d="M3304 1654 c3 -8 1 -24 -5 -36 -8 -15 -7 -24 4 -36 8 -9 12 -23 10
-29 -6 -17 22 -27 45 -17 9 4 20 7 23 6 11 -2 4 43 -8 56 -7 7 -13 20 -13 27
0 8 -9 17 -20 20 -11 3 -20 11 -20 16 0 5 -5 9 -11 9 -6 0 -8 -7 -5 -16z m33
-28 c-3 -7 0 -19 6 -25 8 -8 5 -11 -11 -11 -34 0 -29 41 7 49 2 1 1 -5 -2 -13z"/>
<path d="M980 1635 c0 -14 2 -25 4 -25 2 0 6 11 8 25 3 14 1 25 -3 25 -5 0 -9
-11 -9 -25z"/>
<path d="M3065 1635 c4 -11 10 -30 12 -42 3 -13 10 -23 15 -23 6 0 7 7 4 16
-3 8 1 26 10 40 17 25 10 31 -16 14 -9 -6 -17 -5 -23 3 -5 7 -6 4 -2 -8z"/>
<path d="M971 1588 c-1 -9 -4 -23 -7 -31 -3 -10 3 -20 16 -27 18 -10 21 -9 15
1 -5 7 -12 26 -16 43 -4 17 -7 23 -8 14z"/>
<path d="M3460 1565 c0 -8 5 -15 10 -15 6 0 10 7 10 15 0 8 -4 15 -10 15 -5 0
-10 -7 -10 -15z"/>
<path d="M3110 1560 c-9 -6 -10 -10 -3 -10 6 0 15 5 18 10 8 12 4 12 -15 0z"/>
<path d="M3210 1551 c0 -5 7 -11 14 -14 10 -4 13 -1 9 9 -6 15 -23 19 -23 5z"/>
<path d="M3425 1550 c3 -5 11 -10 16 -10 6 0 7 5 4 10 -3 6 -11 10 -16 10 -6
0 -7 -4 -4 -10z"/>
<path d="M935 1530 c3 -5 8 -10 11 -10 2 0 4 5 4 10 0 6 -5 10 -11 10 -5 0 -7
-4 -4 -10z"/>
<path d="M770 1515 c0 -14 40 -43 46 -34 3 6 -2 17 -12 24 -19 15 -34 19 -34
10z"/>
<path d="M3330 1492 c0 -11 9 -27 20 -37 20 -18 50 -15 50 6 0 8 4 8 15 -1 12
-10 15 -10 15 4 0 9 -6 16 -14 16 -8 0 -16 6 -19 13 -3 9 -7 9 -20 -1 -17 -14
-41 -7 -32 9 4 5 1 9 -4 9 -6 0 -11 -8 -11 -18z"/>
<path d="M3235 1480 c3 -5 14 -10 23 -10 15 0 15 2 2 10 -20 13 -33 13 -25 0z"/>
<path d="M986 1455 c-3 -9 -1 -25 4 -36 6 -11 8 -24 5 -29 -3 -6 -1 -10 4 -10
12 0 14 11 11 50 -2 32 -16 46 -24 25z"/>
<path d="M3220 1440 c0 -5 5 -10 11 -10 5 0 7 5 4 10 -3 6 -8 10 -11 10 -2 0
-4 -4 -4 -10z"/>
<path d="M3278 1443 c7 -3 16 -2 19 1 4 3 -2 6 -13 5 -11 0 -14 -3 -6 -6z"/>
<path d="M3298 1432 c-16 -10 -28 -21 -28 -26 0 -6 5 -5 12 2 17 17 38 15 38
-3 0 -8 5 -15 10 -15 7 0 7 7 0 20 -6 11 -8 25 -5 30 8 12 6 12 -27 -8z"/>
<path d="M3460 1440 c0 -7 7 -10 15 -6 18 7 20 -10 3 -17 -10 -4 -10 -8 1 -15
15 -11 -2 -27 -18 -17 -5 3 -12 1 -15 -4 -8 -13 38 -19 50 -7 15 17 1 70 -19
74 -9 2 -17 -2 -17 -8z"/>
<path d="M3795 1440 c-22 -10 -18 -12 25 -14 17 0 29 4 27 9 -5 13 -28 16 -52
5z"/>
<path d="M926 1423 c-6 -14 -5 -15 5 -6 7 7 10 15 7 18 -3 3 -9 -2 -12 -12z"/>
<path d="M4045 1420 c-3 -5 -2 -17 3 -26 8 -14 10 -14 15 5 5 22 -7 38 -18 21z"/>
<path d="M3396 1404 c-8 -22 -1 -28 19 -17 14 8 14 11 2 22 -12 9 -16 8 -21
-5z"/>
<path d="M3995 1409 c-4 -6 -5 -13 -2 -16 7 -7 27 6 27 18 0 12 -17 12 -25 -2z"/>
<path d="M3577 1392 c-10 -10 -14 -22 -10 -25 3 -4 13 2 21 14 18 26 10 35
-11 11z"/>
<path d="M930 1370 c0 -5 7 -7 15 -4 8 4 15 8 15 10 0 2 -7 4 -15 4 -8 0 -15
-4 -15 -10z"/>
<path d="M973 1323 c0 -42 3 -52 19 -56 15 -4 17 -3 8 8 -9 11 -7 12 9 8 13
-3 21 -1 21 6 0 7 5 9 10 6 15 -9 12 15 -4 31 -20 19 -26 18 -27 -8 0 -18 -4
-14 -18 16 l-17 40 -1 -51z"/>
<path d="M995 1360 c3 -5 8 -10 11 -10 2 0 4 5 4 10 0 6 -5 10 -11 10 -5 0 -7
-4 -4 -10z"/>
<path d="M920 1326 c0 -8 -6 -17 -12 -20 -7 -3 -3 -3 10 0 13 3 22 1 22 -6 0
-7 -10 -14 -21 -17 -21 -6 -21 -6 2 -18 13 -7 28 -11 34 -8 7 2 17 -11 22 -29
11 -32 11 -32 12 -6 1 15 -7 33 -16 40 -10 7 -18 18 -19 23 -5 41 -34 76 -34
41z"/>
<path d="M1110 1289 c0 -5 5 -7 10 -4 6 3 10 8 10 11 0 2 -4 4 -10 4 -5 0 -10
-5 -10 -11z"/>
<path d="M1155 1270 c-3 -5 -1 -10 4 -10 6 0 11 5 11 10 0 6 -2 10 -4 10 -3 0
-8 -4 -11 -10z"/>
<path d="M1031 1253 c-1 -27 24 -31 33 -7 5 14 4 15 -8 5 -11 -10 -15 -8 -19
6 -4 14 -5 13 -6 -4z"/>
<path d="M1040 1194 c0 -8 5 -12 10 -9 6 4 8 11 5 16 -9 14 -15 11 -15 -7z"/>
<path d="M965 1130 c3 -29 0 -40 -10 -40 -22 0 -26 -15 -9 -36 14 -18 15 -18
8 6 -6 22 -5 23 9 12 8 -7 17 -9 19 -5 8 14 -4 103 -13 103 -4 0 -7 -18 -4
-40z"/>
<path d="M1042 1153 c-8 -15 -9 -30 -3 -47 6 -13 7 -26 3 -29 -4 -2 -2 -2 5
-1 16 4 36 -23 30 -40 -5 -13 31 -31 42 -21 2 3 0 5 -6 5 -6 0 -8 12 -6 28 4
21 2 24 -6 12 -9 -12 -11 -10 -11 11 0 32 -9 42 -27 28 -8 -8 -13 -8 -13 -1 0
6 5 12 12 14 8 3 8 12 1 33 -10 30 -10 30 -21 8z"/>
<path d="M856 1055 c-4 -14 -2 -33 3 -43 7 -13 10 -7 9 26 0 48 -3 52 -12 17z"/>
<path d="M271 1054 c0 -11 3 -14 6 -6 3 7 2 16 -1 19 -3 4 -6 -2 -5 -13z"/>
<path d="M990 1060 c0 -5 7 -10 16 -10 8 0 12 5 9 10 -3 6 -10 10 -16 10 -5 0
-9 -4 -9 -10z"/>
<path d="M1262 1050 c-15 -25 -15 -30 0 -30 6 0 8 3 5 7 -4 3 -2 12 5 20 6 7
9 15 7 18 -3 2 -10 -5 -17 -15z"/>
<path d="M904 1038 c3 -13 6 -32 6 -43 1 -19 1 -19 11 -2 12 21 4 67 -12 67
-7 0 -9 -9 -5 -22z"/>
<path d="M1171 1044 c0 -11 3 -14 6 -6 3 7 2 16 -1 19 -3 4 -6 -2 -5 -13z"/>
<path d="M1042 960 c0 -14 2 -19 5 -12 2 6 2 18 0 25 -3 6 -5 1 -5 -13z"/>
<path d="M890 948 c0 -4 9 -8 20 -8 11 0 20 4 20 8 0 4 -9 8 -20 8 -11 0 -20
-4 -20 -8z"/>
<path d="M940 930 c0 -11 5 -20 10 -20 6 0 10 9 10 20 0 11 -4 20 -10 20 -5 0
-10 -9 -10 -20z"/>
<path d="M1144 918 c-5 -8 3 -12 19 -9 4 0 7 -3 7 -9 0 -5 4 -10 9 -10 5 0 7
8 4 18 -5 19 -30 25 -39 10z"/>
<path d="M970 890 c0 -5 5 -10 10 -10 6 0 10 5 10 10 0 6 -4 10 -10 10 -5 0
-10 -4 -10 -10z"/>
<path d="M1000 880 c0 -5 5 -10 10 -10 6 0 10 5 10 10 0 6 -4 10 -10 10 -5 0
-10 -4 -10 -10z"/>
<path d="M976 863 c-12 -12 -6 -22 9 -17 8 4 15 1 15 -5 0 -6 5 -11 10 -11 6
0 10 3 10 8 0 11 -37 32 -44 25z"/>
<path d="M1165 860 c-3 -5 -1 -10 4 -10 6 0 11 5 11 10 0 6 -2 10 -4 10 -3 0
-8 -4 -11 -10z"/>
<path d="M1351 844 c0 -11 3 -14 6 -6 3 7 2 16 -1 19 -3 4 -6 -2 -5 -13z"/>
<path d="M1025 810 c3 -5 8 -10 11 -10 2 0 4 5 4 10 0 6 -5 10 -11 10 -5 0 -7
-4 -4 -10z"/>
<path d="M1221 784 c0 -11 3 -14 6 -6 3 7 2 16 -1 19 -3 4 -6 -2 -5 -13z"/>
<path d="M1060 760 c0 -5 7 -10 16 -10 8 0 12 5 9 10 -3 6 -10 10 -16 10 -5 0
-9 -4 -9 -10z"/>
<path d="M1110 740 c8 -5 20 -10 25 -10 6 0 3 5 -5 10 -8 5 -19 10 -25 10 -5
0 -3 -5 5 -10z"/>
<path d="M3790 741 c0 -6 5 -13 10 -16 6 -3 10 1 10 9 0 9 -4 16 -10 16 -5 0
-10 -4 -10 -9z"/>
<path d="M1415 700 c-8 -13 3 -30 18 -29 9 0 9 2 0 5 -7 3 -9 12 -6 20 6 16
-3 19 -12 4z"/>
<path d="M66 677 c3 -10 9 -15 12 -12 3 3 0 11 -7 18 -10 9 -11 8 -5 -6z"/>
<path d="M1230 589 c0 -5 5 -7 10 -4 6 3 10 8 10 11 0 2 -4 4 -10 4 -5 0 -10
-5 -10 -11z"/>
<path d="M1238 558 c5 -5 16 -8 23 -6 8 3 3 7 -10 11 -17 4 -21 3 -13 -5z"/>
<path d="M1390 548 c0 -4 4 -8 9 -8 6 0 12 4 15 8 3 5 -1 9 -9 9 -8 0 -15 -4
-15 -9z"/>
<path d="M1442 510 c0 -14 2 -19 5 -12 2 6 2 18 0 25 -3 6 -5 1 -5 -13z"/>
<path d="M1285 510 c-3 -5 -2 -10 4 -10 5 0 13 5 16 10 3 6 2 10 -4 10 -5 0
-13 -4 -16 -10z"/>
<path d="M940 454 c0 -8 5 -12 10 -9 6 4 8 11 5 16 -9 14 -15 11 -15 -7z"/>
<path d="M1346 457 c3 -10 9 -15 12 -12 3 3 0 11 -7 18 -10 9 -11 8 -5 -6z"/>
<path d="M1638 403 c5 -21 7 -23 10 -9 2 10 0 22 -6 28 -6 6 -7 0 -4 -19z"/>
<path d="M1355 390 c-8 -13 15 -24 27 -12 6 6 4 11 -6 15 -8 3 -18 2 -21 -3z"/>
<path d="M1435 340 c3 -5 8 -10 11 -10 2 0 4 5 4 10 0 6 -5 10 -11 10 -5 0 -7
-4 -4 -10z"/>
<path d="M1418 313 c6 -2 18 -2 25 0 6 3 1 5 -13 5 -14 0 -19 -2 -12 -5z"/>
<path d="M1580 310 c0 -5 5 -10 10 -10 6 0 10 5 10 10 0 6 -4 10 -10 10 -5 0
-10 -4 -10 -10z"/>
<path d="M1700 209 c0 -15 7 -32 15 -39 19 -16 19 -11 0 31 -14 33 -14 33 -15
8z"/>
<path d="M1761 213 c-1 -17 16 -25 25 -12 4 7 3 9 -4 5 -5 -3 -13 0 -15 6 -4
9 -6 10 -6 1z"/>
<path d="M1522 193 c8 -10 14 -11 16 -4 3 8 10 8 25 0 17 -9 19 -9 11 1 -6 6
-23 13 -38 14 -22 3 -24 1 -14 -11z"/>
<path d="M1625 190 c-10 -11 -14 -20 -9 -20 5 0 15 9 22 20 7 11 11 20 9 20
-2 0 -12 -9 -22 -20z"/>
<path d="M1480 160 c0 -5 5 -10 10 -10 6 0 10 5 10 10 0 6 -4 10 -10 10 -5 0
-10 -4 -10 -10z"/>
<path d="M1555 160 c3 -5 8 -10 11 -10 2 0 4 5 4 10 0 6 -5 10 -11 10 -5 0 -7
-4 -4 -10z"/>
<path d="M1739 120 c-17 -13 -19 -19 -9 -19 16 0 50 22 50 33 0 12 -18 6 -41
-14z"/>
<path d="M1680 90 c0 -6 7 -10 15 -10 8 0 15 2 15 4 0 2 -7 6 -15 10 -8 3 -15
1 -15 -4z"/>
<path d="M1806 85 c-3 -8 -1 -15 4 -15 6 0 10 7 10 15 0 8 -2 15 -4 15 -2 0
-6 -7 -10 -15z"/>
<path d="M1725 30 c-3 -5 -1 -10 4 -10 6 0 11 5 11 10 0 6 -2 10 -4 10 -3 0
-8 -4 -11 -10z"/>
<path d="M1750 10 c-8 -5 -10 -10 -5 -10 6 0 17 5 25 10 8 5 11 10 5 10 -5 0
-17 -5 -25 -10z"/>
</g>
</svg>
